<svg width="16" height="16" viewBox="0 0 16 16" fill="none" xmlns="http://www.w3.org/2000/svg">
<g clip-path="url(#clip0)">
<path d="M4.50801 6.69005C4.50801 6.88805 4.53151 7.04705 4.56801 7.16405C4.60951 7.28105 4.66451 7.40905 4.73751 7.54705C4.76212 7.58324 4.77567 7.6258 4.77651 7.66955C4.77651 7.72405 4.74251 7.77655 4.67501 7.83105L4.33901 8.05255C4.29915 8.08278 4.25099 8.10006 4.20101 8.10205C4.14651 8.10205 4.09401 8.07605 4.04201 8.02655C3.96925 7.9502 3.90473 7.86641 3.84951 7.77655C3.78963 7.67521 3.73489 7.57091 3.68551 7.46405C3.26901 7.95355 2.74801 8.19855 2.12051 8.19855C1.67251 8.19855 1.31601 8.07105 1.05551 7.81555C0.795006 7.55755 0.662506 7.21905 0.662506 6.79205C0.662506 6.34155 0.821506 5.97155 1.14701 5.69555C1.47251 5.41955 1.90201 5.28155 2.45151 5.28155C2.63101 5.28155 2.81851 5.29705 3.01401 5.32305C3.21201 5.34905 3.41501 5.39355 3.62601 5.44005V5.05205C3.62601 4.64855 3.54251 4.36455 3.37601 4.20055C3.20651 4.03655 2.92051 3.95555 2.50901 3.95555C2.32401 3.95555 2.13151 3.97655 1.93351 4.02305C1.7385 4.07049 1.54703 4.13147 1.36051 4.20555C1.29801 4.23405 1.23551 4.25505 1.17301 4.27605C1.14579 4.28413 1.11781 4.28933 1.08951 4.29155C1.01401 4.29155 0.977506 4.23705 0.977506 4.12505V3.86455C0.977506 3.78105 0.988006 3.71605 1.01401 3.67955C1.05308 3.6301 1.10422 3.59153 1.16251 3.56755C1.3753 3.46126 1.60007 3.38086 1.83201 3.32805C2.10322 3.2581 2.38243 3.22397 2.66251 3.22655C3.29801 3.22655 3.75901 3.36955 4.05851 3.65905C4.35001 3.94555 4.49851 4.38055 4.49851 4.96655V6.69055L4.50801 6.69005ZM2.34901 7.50005C2.52351 7.50005 2.70601 7.46855 2.89601 7.40355C3.09136 7.33747 3.26565 7.22065 3.40101 7.06505C3.48701 6.96355 3.55201 6.85155 3.58351 6.72405C3.61501 6.59655 3.63551 6.44005 3.63551 6.26055V6.03655C3.47422 5.99685 3.31078 5.96647 3.14601 5.94555C2.98018 5.92443 2.81317 5.91391 2.64601 5.91405C2.28901 5.91405 2.02901 5.98455 1.85451 6.12755C1.67751 6.27055 1.59401 6.47405 1.59401 6.73955C1.59401 6.98955 1.65651 7.17455 1.78951 7.30205C1.91701 7.43505 2.10451 7.50005 2.34951 7.50005H2.34901ZM6.62251 8.07555C6.52601 8.07555 6.46101 8.06005 6.41951 8.02105C6.37801 7.98955 6.33901 7.91405 6.30751 7.81555L5.05751 3.70105C5.03305 3.63211 5.01726 3.56039 5.01051 3.48755C5.01051 3.40155 5.05201 3.35455 5.13551 3.35455H5.65901C5.76051 3.35455 5.82851 3.37005 5.86451 3.40655C5.90901 3.43805 5.94001 3.51355 5.97151 3.61505L6.86751 7.13855L7.69801 3.61505C7.72401 3.50805 7.75551 3.43805 7.79701 3.40655C7.86103 3.36742 7.93566 3.34925 8.01051 3.35455H8.43501C8.53651 3.35455 8.60701 3.37005 8.64851 3.40655C8.69001 3.43805 8.72901 3.51355 8.75001 3.61505L9.59101 7.18005L10.5105 3.61505C10.5445 3.50805 10.581 3.43805 10.6175 3.40655C10.6797 3.36747 10.7527 3.34925 10.826 3.35455H11.321C11.407 3.35455 11.454 3.39605 11.454 3.48755C11.454 3.51355 11.449 3.53955 11.4435 3.57355C11.4348 3.61877 11.4226 3.66325 11.407 3.70655L10.123 7.81855C10.0915 7.92555 10.0555 7.99555 10.011 8.02705C9.95174 8.06603 9.88125 8.08431 9.81051 8.07905H9.35201C9.25051 8.07905 9.18251 8.06355 9.13851 8.02705C9.09701 7.99055 9.06051 7.92005 9.03951 7.81355L8.21401 4.38105L7.39351 7.80805C7.36751 7.91505 7.33601 7.98505 7.29201 8.02155C7.25051 8.05805 7.17501 8.07355 7.07851 8.07355L6.62251 8.07555ZM13.4585 8.21905C13.1825 8.21905 12.9065 8.18505 12.641 8.12255C12.3755 8.06005 12.167 7.98955 12.029 7.90905C11.943 7.86205 11.886 7.81005 11.865 7.76055C11.8433 7.71402 11.8317 7.6634 11.831 7.61205V7.34105C11.831 7.22905 11.8755 7.17455 11.9535 7.17455C11.985 7.17455 12.0185 7.17955 12.05 7.19005C12.0815 7.20305 12.1305 7.22405 12.183 7.24455C12.3655 7.32505 12.5605 7.38755 12.769 7.42955C12.9825 7.47405 13.1885 7.49455 13.402 7.49455C13.738 7.49455 13.9985 7.43455 14.178 7.31755C14.355 7.21055 14.462 7.01805 14.4565 6.81255C14.4586 6.67461 14.4073 6.54119 14.3135 6.44005C14.217 6.34105 14.035 6.25005 13.7745 6.16405L13.0035 5.92455C12.6155 5.80205 12.3265 5.62255 12.152 5.38305C11.9801 5.16165 11.886 4.88982 11.884 4.60955C11.884 4.38555 11.9335 4.19005 12.03 4.01855C12.1265 3.84905 12.254 3.70105 12.413 3.58355C12.5782 3.45794 12.7654 3.36433 12.965 3.30755C13.1785 3.24255 13.4025 3.21655 13.637 3.21655C13.754 3.21655 13.8765 3.22155 13.994 3.23755C14.1165 3.25305 14.2285 3.27405 14.3405 3.29755C14.4445 3.32355 14.546 3.34955 14.6425 3.38105C14.739 3.41255 14.8145 3.44605 14.8665 3.47755C14.9288 3.50936 14.9832 3.55482 15.0255 3.61055C15.061 3.66252 15.0784 3.72472 15.075 3.78755V4.03755C15.075 4.14955 15.0305 4.20705 14.9525 4.20705C14.8814 4.19977 14.8124 4.17853 14.7495 4.14455C14.4283 4.00179 14.0799 3.93065 13.7285 3.93605C13.424 3.93605 13.184 3.98305 13.02 4.08455C12.8535 4.18605 12.77 4.33955 12.77 4.55855C12.77 4.70705 12.822 4.83455 12.929 4.93605C13.036 5.03755 13.2335 5.13905 13.515 5.23055L14.27 5.46755C14.653 5.59005 14.9315 5.76205 15.0955 5.98055C15.2595 6.19655 15.3405 6.44655 15.3405 6.72555C15.3405 6.95205 15.291 7.16055 15.2025 7.34255C15.1066 7.52378 14.9746 7.6834 14.8145 7.81155C14.648 7.94455 14.4525 8.03805 14.2235 8.10855C13.9762 8.18387 13.719 8.22163 13.4605 8.22055L13.4585 8.21905ZM14.466 10.8046C12.7135 12.0991 10.1715 12.7836 7.98401 12.7836C4.91901 12.7836 2.15601 11.6506 0.0700057 9.76555C-0.0939943 9.61705 0.0545057 9.41405 0.252506 9.53355C2.50751 10.8411 5.29151 11.6351 8.16901 11.6351C10.1115 11.6351 12.2445 11.2286 14.2105 10.4006C14.502 10.2651 14.752 10.5906 14.4655 10.8041L14.466 10.8046ZM15.1955 9.97405C14.9715 9.68755 13.7135 9.83605 13.146 9.90655C12.9765 9.92755 12.948 9.77655 13.1045 9.66455C14.1045 8.96405 15.7475 9.16455 15.9405 9.39905C16.1305 9.64105 15.886 11.2846 14.951 12.0711C14.808 12.1936 14.667 12.1311 14.732 11.9696C14.9455 11.4436 15.4195 10.2586 15.1955 9.97455V9.97405Z" fill="black"/>
</g>
<defs>
<clipPath id="clip0">
<rect width="16" height="16" fill="white"/>
</clipPath>
</defs>
</svg>
