<svg width="19" height="14" viewBox="0 0 19 14" fill="none" xmlns="http://www.w3.org/2000/svg">
<path d="M0 2.40625C0 1.078 1.078 0 2.40625 0H16.8438C18.172 0 19.25 1.078 19.25 2.40625V11.3438C19.25 11.9819 18.9965 12.594 18.5452 13.0452C18.094 13.4965 17.4819 13.75 16.8438 13.75H2.40625C1.76807 13.75 1.15603 13.4965 0.704774 13.0452C0.253515 12.594 0 11.9819 0 11.3438V2.40625ZM5.85888 6.48175C6.10391 6.48175 6.34654 6.43349 6.57291 6.33972C6.79929 6.24595 7.00499 6.10851 7.17825 5.93525C7.35151 5.76199 7.48895 5.55629 7.58272 5.32991C7.67649 5.10354 7.72475 4.86091 7.72475 4.61587C7.72475 4.37084 7.67649 4.12821 7.58272 3.90184C7.48895 3.67546 7.35151 3.46976 7.17825 3.2965C7.00499 3.12324 6.79929 2.9858 6.57291 2.89203C6.34654 2.79826 6.10391 2.75 5.85888 2.75C5.36401 2.75 4.88942 2.94658 4.5395 3.2965C4.18958 3.64642 3.993 4.12101 3.993 4.61587C3.993 5.11074 4.18958 5.58533 4.5395 5.93525C4.88942 6.28517 5.36401 6.48175 5.85888 6.48175ZM3.92975 7.414C3.61686 7.414 3.31679 7.53829 3.09554 7.75954C2.87429 7.98079 2.75 8.28086 2.75 8.59375C2.75005 9.10582 2.92125 9.60319 3.23641 10.0068C3.55157 10.4104 3.99259 10.6971 4.48937 10.8212L4.56225 10.8405C5.41475 11.0536 6.30438 11.0536 7.1555 10.8405L7.22975 10.8226C7.72654 10.6984 8.16756 10.4118 8.48271 10.0082C8.79787 9.60456 8.96908 9.1072 8.96912 8.59513C8.96931 8.44008 8.93892 8.28652 8.87972 8.14323C8.82051 7.99994 8.73364 7.86972 8.62407 7.76003C8.5145 7.65033 8.38439 7.56331 8.24116 7.50393C8.09794 7.44456 7.94442 7.414 7.78937 7.414H3.92975ZM11.6875 4.125C11.5052 4.125 11.3303 4.19743 11.2014 4.32636C11.0724 4.4553 11 4.63016 11 4.8125C11 4.99484 11.0724 5.1697 11.2014 5.29864C11.3303 5.42757 11.5052 5.5 11.6875 5.5H15.8125C15.9948 5.5 16.1697 5.42757 16.2986 5.29864C16.4276 5.1697 16.5 4.99484 16.5 4.8125C16.5 4.63016 16.4276 4.4553 16.2986 4.32636C16.1697 4.19743 15.9948 4.125 15.8125 4.125H11.6875ZM11.6875 8.25C11.5052 8.25 11.3303 8.32243 11.2014 8.45136C11.0724 8.58029 11 8.75516 11 8.9375C11 9.11984 11.0724 9.29471 11.2014 9.42364C11.3303 9.55257 11.5052 9.625 11.6875 9.625H15.8125C15.9948 9.625 16.1697 9.55257 16.2986 9.42364C16.4276 9.29471 16.5 9.11984 16.5 8.9375C16.5 8.75516 16.4276 8.58029 16.2986 8.45136C16.1697 8.32243 15.9948 8.25 15.8125 8.25H11.6875Z" fill="#4682B4"/>
</svg>
