<svg width="44" height="62" viewBox="0 0 44 62" fill="none" xmlns="http://www.w3.org/2000/svg">
<path d="M21.9732 61.8433L4.0669 56.8761L0.0764771 12.1537H43.9235L39.929 56.8693L21.9732 61.8433Z" fill="#264DE4"/>
<path d="M36.5092 54.0219L39.9226 15.8103H22V58.0412L36.5092 54.0219Z" fill="#2965F1"/>
<path d="M9.22437 32.3973L9.71627 37.8824H22V32.3973H9.22437Z" fill="#EBEBEB"/>
<path d="M8.23572 21.2955L8.73467 26.7806H22V21.2955H8.23572Z" fill="#EBEBEB"/>
<path d="M22 46.6426L21.976 46.649L15.8627 44.9995L15.4719 40.625H9.96155L10.7305 49.2373L21.9747 52.3562L22 52.3494V46.6426Z" fill="#EBEBEB"/>
<path d="M10.3957 0H17.0438V2.77815H13.1759V5.5563H17.0442V8.33428H10.3957V0Z" fill="black"/>
<path d="M18.3736 0H25.0219V2.41577H21.1539V2.89889H25.0219V8.45519H18.3738V5.91834H22.2418V5.43522H18.3734V0H18.3736Z" fill="black"/>
<path d="M26.3517 0H33V2.41577H29.132V2.89889H33V8.45519H26.3517V5.91834H30.2198V5.43522H26.3519V0H26.3517Z" fill="black"/>
<path d="M34.7406 32.3973L35.7314 21.2955H21.9811V26.7806H29.7158L29.2163 32.3973H21.9811V37.8823H28.7404L28.1031 44.996L21.9809 46.6472V52.3536L33.2341 49.2373L33.3166 48.3105L34.6067 33.8702L34.7406 32.3973Z" fill="white"/>
</svg>
