<svg width="28" height="27" viewBox="0 0 28 27" fill="none" xmlns="http://www.w3.org/2000/svg">
<g clip-path="url(#clip0)">
<path d="M27.6832 13.5823C27.6832 6.07964 21.6386 -0.00210953 14.1832 -0.00210953C6.72443 -0.000422028 0.67981 6.07964 0.67981 13.584C0.67981 20.3626 5.61743 25.982 12.0704 27.0013V17.5091H8.64481V13.584H12.0738V10.5886C12.0738 7.18495 14.0904 5.30508 17.1734 5.30508C18.6517 5.30508 20.1957 5.57001 20.1957 5.57001V8.91126H18.4931C16.8174 8.91126 16.2942 9.9592 16.2942 11.0341V13.5823H20.0371L19.4397 17.5074H16.2926V26.9996C22.7456 25.9803 27.6832 20.3609 27.6832 13.5823Z" fill="#4267B2"/>
</g>
<defs>
<clipPath id="clip0">
<rect width="27" height="27" fill="white" transform="translate(0.684021)"/>
</clipPath>
</defs>
</svg>
