<svg width="29" height="28" viewBox="0 0 29 28" fill="none" xmlns="http://www.w3.org/2000/svg">
<path d="M14.184 0.346507C6.4499 0.346507 0.184021 6.61763 0.184021 14.3465C0.184021 20.5354 4.19502 25.781 9.7539 27.6316C10.4565 27.7638 10.7103 27.3306 10.7103 26.9561C10.7103 26.6236 10.7024 25.7443 10.6971 24.577C6.80077 25.4205 5.98002 22.6949 5.98002 22.6949C5.34215 21.0814 4.42165 20.6483 4.42165 20.6483C3.15465 19.7829 4.52227 19.8013 4.52227 19.8013C5.92577 19.8966 6.66427 21.2406 6.66427 21.2406C7.9129 23.3826 9.94027 22.7631 10.7426 22.4026C10.8651 21.5005 11.23 20.8801 11.6273 20.5345C8.51927 20.1836 5.25115 18.9805 5.25115 13.6159C5.25115 12.0838 5.79365 10.836 6.69052 9.85601C6.53565 9.50513 6.0614 8.07888 6.8139 6.15038C6.8139 6.15038 7.98552 5.77676 10.6639 7.58626C11.8048 7.27595 12.9815 7.1168 14.1639 7.11288C15.3539 7.12076 16.543 7.27651 17.6639 7.58626C20.3265 5.77676 21.4973 6.15038 21.4973 6.15038C22.2489 8.07888 21.7746 9.50426 21.6381 9.85601C22.5263 10.836 23.0688 12.0846 23.0688 13.6159C23.0688 18.9928 19.7963 20.1784 16.6848 20.5205C17.1713 20.9396 17.6271 21.8015 17.6271 23.1096C17.6271 24.9821 17.6096 26.4906 17.6096 26.9465C17.6096 27.3105 17.8546 27.748 18.5756 27.6071C24.1756 25.7758 28.1823 20.5258 28.1823 14.3456C28.1823 6.61676 21.9164 0.345632 14.1823 0.345632L14.184 0.346507Z" fill="black"/>
</svg>
