<svg width="61" height="61" viewBox="0 0 61 61" fill="none" xmlns="http://www.w3.org/2000/svg">
<circle cx="30.5" cy="30.5" r="30.5" fill="#4682B4" fill-opacity="0.3"/>
<g clip-path="url(#clip0)">
<path d="M20.1818 42.8672V29.0301L15.8682 25.1041L12 22.9255V40.4253C12 41.7764 13.1004 42.8672 14.4546 42.8672H20.1818Z" fill="#4285F4"/>
<path d="M39.8181 42.8673H45.5454C46.9037 42.8673 48 41.7725 48 40.4254V22.9258L43.6187 25.4211L39.8181 29.0302V42.8673Z" fill="#34A853"/>
<path d="M20.1818 29.0299L19.5949 23.6234L20.1818 18.4487L30 25.7743L39.8182 18.4487L40.4749 23.344L39.8182 29.0299L30 36.3555L20.1818 29.0299Z" fill="#EA4335"/>
<path d="M39.8181 18.4487V29.0299L48 22.9254V19.6696C48 16.6499 44.535 14.9285 42.1092 16.7394L39.8181 18.4487Z" fill="#FBBC04"/>
<path d="M12 22.9252L15.763 25.7329L20.1818 29.0297V18.4485L17.8908 16.7393C15.4608 14.9282 12 16.6497 12 19.6693V22.9251V22.9252Z" fill="#C5221F"/>
</g>
<defs>
<clipPath id="clip0">
<rect width="36" height="27" fill="white" transform="translate(12 16)"/>
</clipPath>
</defs>
</svg>
