<svg width="27" height="26" viewBox="0 0 27 26" fill="none" xmlns="http://www.w3.org/2000/svg">
<g clip-path="url(#clip0)">
<path d="M22.3363 22.153H18.4839V16.1198C18.4839 14.6812 18.4582 12.8292 16.4803 12.8292C14.4738 12.8292 14.1668 14.3967 14.1668 16.0151V22.1525H10.3145V9.74608H14.0127V11.4416H14.0645C14.4346 10.8087 14.9694 10.2881 15.612 9.9352C16.2546 9.58228 16.9808 9.41025 17.7134 9.43743C21.618 9.43743 22.3379 12.0057 22.3379 15.3469L22.3363 22.153ZM5.96764 8.05029C4.73294 8.05049 3.73184 7.0497 3.73164 5.815C3.73144 4.58031 4.73213 3.5792 5.96683 3.579C7.20152 3.5787 8.20262 4.57949 8.20283 5.81419C8.20293 6.40711 7.96751 6.9758 7.54833 7.39515C7.12915 7.8145 6.56056 8.05016 5.96764 8.05029ZM7.89387 22.1531H4.03744V9.74608H7.89377V22.153L7.89387 22.1531ZM24.2568 0.00125906H2.10166C1.05455 -0.0105222 0.195841 0.828283 0.183044 1.87539V24.123C0.195435 25.1706 1.05404 26.0102 2.10156 25.9992H24.2568C25.3066 26.0122 26.1685 25.1726 26.183 24.123V1.87367C26.1681 0.824525 25.3061 -0.0141784 24.2568 -0.000467501" fill="#0A66C2"/>
</g>
<defs>
<clipPath id="clip0">
<rect width="26" height="26" fill="white" transform="translate(0.184021)"/>
</clipPath>
</defs>
</svg>
