<svg width="44" height="48" viewBox="0 0 44 48" fill="none" xmlns="http://www.w3.org/2000/svg">
<path d="M2.69421 3H40.4132V45H2.69421V3Z" fill="#F5DE19"/>
<path d="M28.032 35.8124C28.3533 36.5392 28.8526 37.1502 29.4723 37.5748C30.092 37.9995 30.8068 38.2205 31.5344 38.2124C33.0028 38.2124 33.9417 37.3949 33.9417 36.2624C33.9417 34.9124 32.9772 34.4294 31.3607 33.6419L30.4743 33.2189C27.9148 32.0054 26.2174 30.4859 26.2174 27.2729C26.2174 24.3134 28.2381 22.0589 31.4078 22.0589C32.4339 21.9763 33.4591 22.2321 34.3555 22.7941C35.252 23.3561 35.9799 24.1996 36.4487 25.2194L33.6777 27.1919C33.4972 26.6862 33.1829 26.2537 32.7766 25.9515C32.3702 25.6493 31.891 25.4918 31.4024 25.4999C31.1893 25.4761 30.974 25.502 30.7703 25.576C30.5667 25.65 30.3791 25.7705 30.2195 25.9296C30.0599 26.0888 29.9319 26.2833 29.8436 26.5006C29.7552 26.7179 29.7085 26.9533 29.7064 27.1919C29.7064 28.3754 30.3651 28.8554 31.886 29.5919L32.7724 30.0149C35.7846 31.4534 37.4873 32.9189 37.4873 36.2144C37.4873 39.7679 34.9803 41.7148 31.6139 41.7148C30.3022 41.8079 28.9944 41.4763 27.8482 40.7601C26.7021 40.0438 25.7665 38.9735 25.1545 37.6784L28.032 35.8124ZM15.5106 36.1544C16.067 37.2539 16.5735 38.1839 17.7912 38.1839C18.9551 38.1839 19.6907 37.6769 19.6907 35.7044V22.2839H23.2349V35.7569C23.2349 39.8428 21.0795 41.7029 17.9421 41.7029C16.8331 41.7704 15.7317 41.4626 14.7827 40.8201C13.8337 40.1775 13.0816 39.2303 12.6251 38.1029L15.5106 36.1544Z" fill="black"/>
</svg>
