<svg width="51" height="50" viewBox="0 0 51 50" fill="none" xmlns="http://www.w3.org/2000/svg">
<path d="M27.6236 31.5042C26.5466 31.5042 25.9236 32.5271 25.9236 33.8917C25.9236 35.2687 26.5716 36.2375 27.632 36.2375C28.7091 36.2375 29.3236 35.2166 29.3236 33.85C29.3236 32.5916 28.7174 31.5042 27.6236 31.5042Z" fill="#FF0066"/>
<path d="M30.0757 4.16663H13.4091C12.304 4.16663 11.2442 4.60561 10.4628 5.38701C9.68137 6.16842 9.24239 7.22822 9.24239 8.33329V41.6666C9.24239 42.7717 9.68137 43.8315 10.4628 44.6129C11.2442 45.3943 12.304 45.8333 13.4091 45.8333H38.4091C39.5141 45.8333 40.5739 45.3943 41.3553 44.6129C42.1367 43.8315 42.5757 42.7717 42.5757 41.6666V16.6666L30.0757 4.16663ZM17.6216 34.8C17.6216 36.802 16.6611 37.5 15.1216 37.5C14.7549 37.5 14.2757 37.4395 13.9611 37.3333L14.1403 36.052C14.357 36.125 14.6382 36.177 14.9549 36.177C15.6195 36.177 16.0382 35.875 16.0382 34.7812V30.3604H17.6236V34.8H17.6216ZM20.6611 37.4895C19.8591 37.4895 19.0653 37.2812 18.6716 37.0625L18.9945 35.7479C19.4195 35.9666 20.0799 36.1875 20.757 36.1875C21.4861 36.1875 21.8695 35.8833 21.8695 35.427C21.8695 34.9875 21.5382 34.7375 20.6945 34.4354C19.5236 34.0291 18.7632 33.3812 18.7632 32.3604C18.7632 31.1604 19.7653 30.2416 21.4236 30.2416C22.2153 30.2416 22.7966 30.4083 23.2174 30.5979L22.8591 31.8791C22.5778 31.7437 22.0778 31.5458 21.3903 31.5458C20.7028 31.5458 20.3674 31.8583 20.3674 32.2229C20.3674 32.6708 20.7632 32.8708 21.6736 33.2145C22.9153 33.6729 23.4986 34.3187 23.4986 35.3104C23.5007 36.4895 22.5903 37.4895 20.6611 37.4895ZM27.5486 37.5C25.4632 37.5 24.2445 35.927 24.2445 33.925C24.2445 31.8166 25.5903 30.2416 27.6653 30.2416C29.8216 30.2416 31.0007 31.8583 31.0007 33.7979C30.9986 36.1041 29.6028 37.5 27.5486 37.5ZM37.8549 37.3854H36.184L34.682 34.6729C34.2326 33.8684 33.8258 33.0409 33.4632 32.1937L33.4299 32.2041C33.4736 33.1312 33.4945 34.1229 33.4945 35.2708V37.3875H32.034V30.3604H33.8903L35.3507 32.9354C35.7674 33.6729 36.1841 34.55 36.5007 35.3416H36.5299C36.4257 34.4145 36.3945 33.4666 36.3945 32.4125V30.3604H37.857V37.3854H37.8549ZM30.0757 18.75H27.9924V8.33329L38.4091 18.75H30.0757Z" fill="#FF0066"/>
</svg>
