<svg width="61" height="61" viewBox="0 0 61 61" fill="none" xmlns="http://www.w3.org/2000/svg">
<path d="M30.5 15.1875C27.3103 15.1913 24.2523 16.46 21.9968 18.7155C19.7413 20.971 18.4725 24.029 18.4688 27.2188C18.4649 29.8254 19.3164 32.3613 20.8925 34.4375C20.8925 34.4375 21.2206 34.8695 21.2742 34.9319L30.5 45.8125L39.7302 34.9264C39.7783 34.8684 40.1075 34.4375 40.1075 34.4375L40.1086 34.4342C41.6839 32.359 42.535 29.8242 42.5313 27.2188C42.5275 24.029 41.2587 20.971 39.0032 18.7155C36.7478 16.46 33.6897 15.1913 30.5 15.1875ZM30.5 31.5938C29.6347 31.5938 28.7889 31.3372 28.0694 30.8564C27.3499 30.3757 26.7892 29.6924 26.458 28.893C26.1269 28.0936 26.0403 27.2139 26.2091 26.3652C26.3779 25.5166 26.7946 24.737 27.4064 24.1252C28.0183 23.5133 28.7978 23.0966 29.6465 22.9278C30.4952 22.759 31.3748 22.8456 32.1743 23.1768C32.9737 23.5079 33.657 24.0687 34.1377 24.7881C34.6184 25.5076 34.875 26.3535 34.875 27.2188C34.8736 28.3786 34.4122 29.4906 33.592 30.3107C32.7718 31.1309 31.6599 31.5923 30.5 31.5938Z" fill="black"/>
<circle cx="30.5" cy="30.5" r="30.5" fill="#4682B4" fill-opacity="0.3"/>
</svg>
