<svg width="126" height="36" viewBox="0 0 126 36" fill="none" xmlns="http://www.w3.org/2000/svg">
<g clip-path="url(#clip0)">
<path fill-rule="evenodd" clip-rule="evenodd" d="M116.997 14.9946C116.885 15.0166 116.772 15.2599 116.772 15.3925C116.75 16.2776 116.727 18.6226 116.727 20.2153C116.727 20.2597 116.795 20.3481 116.862 20.3481C117.2 20.3702 118.011 20.3922 118.71 20.3922C119.679 20.3922 120.242 20.2597 120.557 20.1271C121.368 19.7287 121.751 18.8659 121.751 17.9144C121.751 15.7689 120.219 14.9502 117.944 14.9502C117.786 14.9282 117.336 14.9282 116.997 14.9946ZM122.81 24.8833C122.81 22.6931 121.166 21.4763 118.192 21.4763C118.056 21.4763 117.11 21.4542 116.885 21.4983C116.817 21.5206 116.727 21.565 116.727 21.6314C116.727 23.2018 116.705 25.7019 116.772 26.6752C116.817 27.0954 117.133 27.6928 117.516 27.8698C117.921 28.091 118.845 28.1351 119.476 28.1351C121.256 28.1351 122.81 27.1618 122.81 24.8833ZM112.402 13.7779C112.627 13.7779 113.303 13.8441 115.037 13.8441C116.682 13.8441 117.989 13.8 119.588 13.8C121.548 13.8 124.252 14.4856 124.252 17.3616C124.252 18.7774 123.238 19.9058 121.909 20.4589C121.842 20.4809 121.842 20.525 121.909 20.5471C123.801 21.0119 125.469 22.1621 125.469 24.33C125.469 26.4539 124.117 27.8034 122.157 28.6441C120.963 29.1528 119.476 29.3297 117.966 29.3297C116.817 29.3297 113.731 29.1971 112.019 29.2415C111.838 29.1748 112.176 28.3785 112.334 28.2459C112.74 28.2236 113.055 28.2015 113.483 28.0687C114.091 27.9141 114.159 27.737 114.249 26.8301C114.294 26.0558 114.294 23.3123 114.294 21.3658C114.294 18.689 114.317 16.875 114.294 15.9901C114.272 15.3045 114.024 15.083 113.528 14.9502C113.145 14.884 112.514 14.7953 111.996 14.7292C111.883 14.6184 112.266 13.8662 112.402 13.7779ZM99.4017 27.538C99.9427 27.958 101.002 28.1349 101.948 28.1349C103.164 28.1349 104.381 27.9141 105.553 26.8739C106.747 25.8124 107.58 24.1753 107.58 21.565C107.58 19.0649 106.611 17.0296 104.629 15.8353C103.502 15.1492 102.06 14.862 100.393 14.862C99.8975 14.862 99.4244 14.884 99.1317 15.0166C99.0638 15.061 98.9063 15.2599 98.9063 15.3704C98.8612 15.813 98.8612 19.2197 98.8612 21.2109C98.8612 23.2682 98.8612 26.1442 98.9063 26.476C98.9063 26.808 99.0638 27.3167 99.4019 27.538H99.4017ZM94.2874 13.7777C94.7156 13.7777 96.3602 13.8441 97.1488 13.8441C98.5684 13.8441 99.5821 13.7779 102.263 13.7779C104.516 13.7779 106.409 14.3751 107.76 15.5033C109.405 16.897 110.261 18.8218 110.261 21.1665C110.261 24.5071 108.707 26.4319 107.152 27.538C105.598 28.6661 103.57 29.3297 100.686 29.3297C99.1541 29.3297 96.5181 29.2856 94.3326 29.2633H94.3101C94.1976 29.0643 94.4903 28.29 94.6705 28.2679C95.2564 28.2015 95.4141 28.1792 95.7071 28.069C96.18 27.8918 96.2703 27.6485 96.338 26.8301C96.4053 25.3035 96.3829 23.4674 96.3829 21.3878C96.3829 19.9058 96.4053 17.0075 96.3602 16.0784C96.2928 15.3043 95.9549 15.1051 95.2789 14.9723C94.941 14.9061 94.4903 14.8174 93.8597 14.7512C93.7694 14.5961 94.1749 13.9105 94.2874 13.7779V13.7777Z" fill="#8E714E"/>
<path fill-rule="evenodd" clip-rule="evenodd" d="M67.0267 28.4006C66.4634 28.3341 66.0579 28.2459 65.5623 28.0247C65.4947 27.9803 65.3819 27.7593 65.3819 27.6706C65.337 26.8963 65.337 24.6841 65.337 23.2021C65.337 22.0073 65.1343 20.9676 64.616 20.2376C64.0076 19.3967 63.1292 18.9103 62.0025 18.9103C61.0113 18.9103 59.6819 19.5738 58.5779 20.503C58.5555 20.5251 58.3753 20.6802 58.3978 20.4366C58.3978 20.1933 58.4429 19.7066 58.4654 19.3746C58.4881 19.0649 58.3077 18.9103 58.3077 18.9103C57.5867 19.2641 55.5591 19.7287 54.8155 19.7949C54.275 19.9059 54.1397 20.4146 54.7032 20.5915H54.7256C55.3336 20.7684 55.7393 20.9676 56.0545 21.1668C56.2798 21.3437 56.2574 21.5871 56.2574 21.7863C56.2798 23.4452 56.2798 25.9894 56.2125 27.3832C56.19 27.9362 56.0323 28.1352 55.6265 28.2236L55.6717 28.2016C55.3563 28.268 55.1085 28.3341 54.7254 28.3785C54.5901 28.5113 54.5901 29.2192 54.7254 29.3741C54.9732 29.3741 56.2798 29.3077 57.3616 29.3077C58.8484 29.3077 59.6146 29.3741 59.9974 29.3741C60.1551 29.1972 60.2003 28.5334 60.1102 28.3785C59.6819 28.3564 59.3665 28.3123 59.0738 28.2236C58.6683 28.1349 58.5555 27.9362 58.5328 27.4716C58.4881 26.2989 58.4881 23.8213 58.4881 22.1401C58.4881 21.6755 58.6231 21.4543 58.7581 21.3214C59.2764 20.8791 60.1102 20.5694 60.8536 20.5694C61.5745 20.5694 62.0474 20.7907 62.408 21.0784C62.9036 21.4763 63.0613 22.0516 63.129 22.4719C63.2415 23.4231 63.1966 25.3035 63.1966 26.9406C63.1966 27.8254 63.129 28.0467 62.7913 28.1572C62.6334 28.2236 62.2278 28.3123 61.7547 28.3562C61.597 28.5113 61.6421 29.1972 61.7547 29.352C62.408 29.352 63.1741 29.2856 64.3006 29.2856C65.6973 29.2856 66.5987 29.352 66.9593 29.352C67.0716 29.2192 67.1168 28.5777 67.0267 28.4006ZM73.2674 19.9502C72.0735 19.9502 71.3299 20.8571 71.3299 22.2727C71.3299 23.7108 71.9832 25.3699 73.8306 25.3699C74.1461 25.3699 74.732 25.2371 75.002 24.9274C75.4302 24.5295 75.7232 23.7328 75.7232 22.8921C75.7232 21.0561 74.7994 19.95 73.2674 19.95V19.9502ZM73.1097 29.7279C72.6592 29.7279 72.3436 29.8607 72.1409 29.9715C71.1946 30.5684 70.7667 31.1437 70.7667 31.8298C70.7667 32.4711 71.0145 32.9798 71.5552 33.4223C72.2086 33.9754 73.1097 34.241 74.2586 34.241C76.5567 34.241 77.5706 33.0241 77.5706 31.8298C77.5706 30.9889 77.1424 30.4358 76.264 30.1263C75.6331 29.8607 74.4842 29.7279 73.1097 29.7279ZM73.2674 35.4799C71.8931 35.4799 70.9017 35.1922 70.0457 34.5507C69.212 33.9313 68.8516 33.0021 68.8516 32.3606C68.8516 32.1837 68.8968 31.6968 69.3023 31.2545C69.5499 30.9889 70.0909 30.4802 71.3751 29.6174C71.42 29.5953 71.4424 29.5733 71.4424 29.5287C71.4424 29.4846 71.3973 29.4402 71.3524 29.4184C70.2935 29.0202 69.9781 28.3785 69.8878 28.0247V27.9803C69.8655 27.8475 69.8204 27.7149 70.0233 27.5821C70.181 27.4716 70.4063 27.3388 70.6539 27.1842C71.0369 26.9627 71.4424 26.7194 71.6902 26.5201C71.7354 26.476 71.7354 26.4319 71.7354 26.3876C71.7354 26.3432 71.6902 26.2989 71.6451 26.2771C70.0684 25.7681 69.2798 24.6177 69.2798 22.8921C69.2798 21.764 69.7979 20.7463 70.7215 20.1048C71.3524 19.6182 72.9295 19.0208 73.9659 19.0208H74.0335C75.0923 19.0428 75.678 19.2641 76.5115 19.5518C76.9622 19.7066 77.3904 19.7728 77.9764 19.7728C78.8548 19.7728 79.2379 19.5074 79.553 19.198C79.5757 19.2421 79.6209 19.3528 79.6434 19.6402C79.6658 19.9279 79.5757 20.3482 79.3504 20.6579C79.1702 20.9012 78.7647 21.0784 78.3592 21.0784H78.2464C77.8409 21.034 77.6605 20.9897 77.6605 20.9897L77.5706 21.034C77.5482 21.0784 77.5706 21.1225 77.5931 21.1889L77.6158 21.2332C77.6607 21.4322 77.7508 22.0294 77.7508 22.1845C77.7508 23.9985 77.0074 24.7946 76.2188 25.392C75.4527 25.945 74.5743 26.2989 73.5828 26.3876C73.5604 26.3876 73.4705 26.3876 73.2674 26.4096C73.1548 26.4096 72.9971 26.4319 72.9744 26.4319H72.952C72.7718 26.476 72.3213 26.6973 72.3213 27.0732C72.3213 27.405 72.524 27.8034 73.4927 27.8698C73.6954 27.8919 73.898 27.8919 74.1236 27.9141C75.4078 28.0024 77.0074 28.1131 77.7508 28.3564C78.7872 28.7323 79.4405 29.6395 79.4405 30.7235C79.4405 32.3608 78.2466 33.8872 76.264 34.8382C75.2952 35.2586 74.3262 35.4799 73.2674 35.4799ZM86.1092 20.0607C85.6363 20.0607 85.2081 20.171 84.8926 20.3923C84.0142 20.9233 83.5635 21.9852 83.5635 23.5336C83.5635 26.4319 85.0503 28.4672 87.1683 28.4672C87.7991 28.4672 88.2947 28.29 88.7227 27.9362C89.376 27.405 89.7142 26.3432 89.7142 24.861C89.7142 21.9852 88.2496 20.0605 86.1094 20.0605L86.1092 20.0607ZM86.5149 29.5289C82.6849 29.5289 81.3106 26.7637 81.3106 24.1754C81.3106 22.3614 82.054 20.9676 83.5408 19.972C84.5999 19.3305 85.8616 18.9767 86.9881 18.9767C89.9168 18.9767 91.9671 21.034 91.9671 23.9985C91.9671 26.0114 91.1561 27.6042 89.6014 28.5777C88.858 29.0644 87.5738 29.5289 86.5147 29.5289H86.5149ZM46.367 20.0605C45.8939 20.0605 45.4659 20.171 45.1502 20.3923C44.2718 20.9233 43.8211 21.9852 43.8211 23.5336C43.8211 26.4319 45.3079 28.4672 47.4258 28.4672C48.0567 28.4672 48.5523 28.29 48.9805 27.9362C49.6336 27.405 49.9717 26.3432 49.9717 24.861C49.9717 21.9852 48.5298 20.0605 46.367 20.0605ZM46.7725 29.5289C42.9424 29.5289 41.5682 26.7637 41.5682 24.1754C41.5682 22.3614 42.3116 20.9676 43.7984 19.972C44.8575 19.3305 46.1192 18.9767 47.2457 18.9767C50.1746 18.9767 52.2247 21.034 52.2247 23.9985C52.2247 26.0114 51.4136 27.6042 49.8589 28.5777C49.138 29.0644 47.8538 29.5289 46.7725 29.5289ZM21.021 29.3077C20.9759 29.2415 20.9307 29.0423 20.9534 28.799C20.9534 28.6218 20.9986 28.5113 21.021 28.4672C21.4942 28.4006 21.742 28.3341 22.0123 28.268C22.4629 28.1572 22.6431 27.9141 22.6656 27.3611C22.7335 26.0337 22.7335 23.5116 22.7107 21.764V21.7196C22.7107 21.5207 22.7107 21.2771 22.4629 21.1002C22.1023 20.8791 21.6744 20.6802 21.1111 20.5248C20.9085 20.4589 20.7732 20.3482 20.7957 20.2156C20.7957 20.0828 20.931 19.9279 21.2239 19.8836C21.9673 19.8172 23.9046 19.3528 24.6707 19.0208C24.7159 19.0649 24.7835 19.198 24.7835 19.3749L24.761 19.618C24.7383 19.8615 24.7159 20.1492 24.7159 20.4366C24.7159 20.5251 24.8062 20.5915 24.896 20.5915C24.9412 20.5915 24.9864 20.5694 25.0313 20.5471C26.4732 19.441 27.7798 19.0428 28.4556 19.0428C29.5599 19.0428 30.4161 19.5518 31.0694 20.6135C31.1143 20.6802 31.1595 20.7022 31.2271 20.7022C31.272 20.7022 31.3394 20.6802 31.3621 20.6358C32.6915 19.6402 34.0208 19.0428 34.8992 19.0428C36.9944 19.0428 38.2337 20.5694 38.2337 23.1577C38.2337 23.8877 38.2337 24.8389 38.2112 25.702C38.2112 26.476 38.1888 27.1839 38.1888 27.6929C38.1888 27.8032 38.3462 28.1572 38.594 28.2236C38.9095 28.3785 39.3377 28.4449 39.9009 28.5334H39.9234C39.9686 28.6882 39.8785 29.2633 39.7884 29.3741C39.6531 29.3741 39.4503 29.3741 39.2252 29.352C38.6548 29.3228 38.0838 29.308 37.5127 29.3077C36.116 29.3077 35.3951 29.3297 34.6963 29.3741C34.6517 29.1972 34.629 28.6662 34.6963 28.5334C35.1021 28.4672 35.3047 28.4006 35.5528 28.3344C36.0035 28.2016 36.116 28.0024 36.1387 27.4273C36.1387 27.007 36.2286 23.4231 36.0933 22.5603C35.9583 21.6755 35.2823 20.6358 33.7952 20.6358C33.232 20.6358 32.3536 20.8571 31.4974 21.4984C31.4524 21.5427 31.407 21.6532 31.407 21.7196V21.7419C31.4974 22.2063 31.4974 22.7375 31.4974 23.5559V24.9938C31.4974 25.9894 31.4747 26.9186 31.4974 27.6262C31.4974 28.1131 31.7903 28.2236 32.0381 28.3123C32.1734 28.3341 32.2632 28.3564 32.376 28.3785C32.5787 28.4228 32.7815 28.4672 33.097 28.5334C33.1421 28.6221 33.1421 28.9095 33.0745 29.1528C33.0518 29.2856 33.0066 29.3518 32.9842 29.3741C32.2183 29.352 31.4297 29.3297 30.2808 29.3297C29.9429 29.3297 29.357 29.352 28.8614 29.352C28.4556 29.352 28.0728 29.3741 27.8477 29.3741C27.825 29.3297 27.7798 29.1751 27.7798 28.9315C27.7798 28.7326 27.825 28.5777 27.8702 28.5334C27.9827 28.5113 28.0728 28.4893 28.1856 28.4893C28.4556 28.4449 28.6812 28.4006 28.9063 28.3564C29.2896 28.2459 29.4246 28.0467 29.4471 27.5601C29.5147 26.454 29.5823 23.2906 29.4246 22.4939C29.1544 21.2109 28.4109 20.5694 27.2166 20.5694C26.5184 20.5694 25.6395 20.9012 24.9188 21.4324C24.806 21.5207 24.7159 21.7417 24.7159 21.9409V23.2462C24.7159 24.8389 24.7159 26.8301 24.7383 27.6929C24.761 27.958 24.8509 28.268 25.3692 28.3785C25.482 28.4006 25.6622 28.4449 25.8875 28.4672L26.2928 28.5334C26.3382 28.6662 26.3155 29.1972 26.2254 29.3741C26.0001 29.3741 25.7298 29.352 25.4141 29.352C24.9412 29.3297 24.3328 29.3077 23.657 29.3077C22.8685 29.3077 22.3052 29.3297 21.8545 29.352C21.5391 29.3077 21.2913 29.3077 21.021 29.3077Z" fill="#442D22"/>
<path fill-rule="evenodd" clip-rule="evenodd" d="M9.17023 34.6171L8.24665 34.3071C8.24665 34.3071 8.35944 29.6838 6.6695 29.352C5.54328 28.0687 6.85016 -25.0689 10.9053 29.1748C10.9053 29.1748 9.50837 29.8604 9.26056 31.0332C8.99006 32.1836 9.17023 34.6171 9.17023 34.6171Z" fill="white"/>
<path fill-rule="evenodd" clip-rule="evenodd" d="M9.17023 34.6171L8.24665 34.3071C8.24665 34.3071 8.35944 29.6838 6.6695 29.352C5.54328 28.0687 6.85016 -25.0689 10.9053 29.1748C10.9053 29.1748 9.50837 29.8604 9.26056 31.0332C8.99006 32.1836 9.17023 34.6171 9.17023 34.6171Z" fill="#A6A385"/>
<path fill-rule="evenodd" clip-rule="evenodd" d="M9.66608 30.1483C9.66608 30.1483 17.7545 24.9273 15.8616 14.0651C14.0369 6.16781 9.7337 3.57949 9.26056 2.5839C8.74249 1.87599 8.24664 0.637329 8.24664 0.637329L8.58478 22.6044C8.58478 22.6267 7.88629 29.3297 9.66632 30.1486" fill="white"/>
<path fill-rule="evenodd" clip-rule="evenodd" d="M9.66608 30.1483C9.66608 30.1483 17.7545 24.9273 15.8616 14.0651C14.0369 6.16781 9.7337 3.57949 9.26056 2.5839C8.74249 1.87599 8.24664 0.637329 8.24664 0.637329L8.58478 22.6044C8.58478 22.6267 7.88629 29.3297 9.66632 30.1486" fill="#499D4A"/>
<path fill-rule="evenodd" clip-rule="evenodd" d="M7.77375 30.4358C7.77375 30.4358 0.18098 25.3476 0.631664 16.3884C1.05964 7.42884 6.4217 3.02651 7.45808 2.23014C8.1341 1.52223 8.15657 1.25662 8.20173 0.548706C8.67488 1.54429 8.58479 15.4371 8.65217 17.074C8.85481 23.3788 8.29182 29.2415 7.77375 30.4358Z" fill="white"/>
<path fill-rule="evenodd" clip-rule="evenodd" d="M7.77375 30.4358C7.77375 30.4358 0.18098 25.3476 0.631664 16.3884C1.05964 7.42884 6.4217 3.02651 7.45808 2.23014C8.1341 1.52223 8.15657 1.25662 8.20173 0.548706C8.67488 1.54429 8.58479 15.4371 8.65217 17.074C8.85481 23.3788 8.29182 29.2415 7.77375 30.4358Z" fill="#58AA50"/>
</g>
<defs>
<clipPath id="clip0">
<rect width="125" height="35" fill="white" transform="translate(0.612366 0.5)"/>
</clipPath>
</defs>
</svg>
