<svg width="55" height="38" viewBox="0 0 55 38" fill="none" xmlns="http://www.w3.org/2000/svg">
<path d="M27.4693 37.3085C27.2872 37.3085 27.1173 37.2544 26.9594 37.1598L25.345 36.092C25.1022 35.9433 25.2236 35.8892 25.2965 35.8622C25.6242 35.7406 25.6849 35.7135 26.0248 35.4973C26.0612 35.4702 26.1098 35.4838 26.1462 35.5108L27.3844 36.3353C27.4329 36.3623 27.4936 36.3623 27.53 36.3353L32.3735 33.2129C32.422 33.1859 32.4464 33.1317 32.4464 33.0643V26.833C32.4464 26.7653 32.422 26.7114 32.3735 26.6843L27.53 23.5755C27.4814 23.5483 27.4207 23.5483 27.3844 23.5755L22.5409 26.6843C22.4924 26.7113 22.468 26.7789 22.468 26.8329V33.0641C22.468 33.1183 22.4924 33.1858 22.5409 33.2129L23.8641 34.0644C24.5803 34.4699 25.0294 33.9968 25.0294 33.5238V27.3736C25.0294 27.2926 25.0901 27.2114 25.1751 27.2114H25.7941C25.867 27.2114 25.9398 27.279 25.9398 27.3736V33.5238C25.9398 34.5915 25.4178 35.2134 24.5074 35.2134C24.2282 35.2134 24.0097 35.2134 23.3906 34.8754L22.116 34.0644C21.8004 33.8618 21.6062 33.4832 21.6062 33.0777V26.8465C21.6062 26.441 21.8004 26.0624 22.116 25.8598L26.9594 22.7374C27.263 22.5482 27.6757 22.5482 27.9792 22.7374L32.8226 25.8598C33.1382 26.0624 33.3325 26.441 33.3325 26.8465V33.0777C33.3325 33.4832 33.1382 33.8618 32.8226 34.0644L27.9792 37.1868C27.8213 37.268 27.6393 37.3085 27.4694 37.3085H27.4693ZM28.9624 33.0237C26.8381 33.0237 26.4011 31.9423 26.4011 31.0232C26.4011 30.942 26.4618 30.861 26.5468 30.861H27.178C27.2508 30.861 27.3115 30.915 27.3115 30.9962C27.4087 31.7125 27.6878 32.064 28.9746 32.064C29.9942 32.064 30.4313 31.8071 30.4313 31.1989C30.4313 30.8474 30.3098 30.5907 28.7197 30.4149C27.3965 30.2662 26.571 29.9419 26.571 28.7659C26.571 27.671 27.3966 27.0222 28.7804 27.0222C30.3341 27.0222 31.0989 27.617 31.1961 28.9144C31.1961 28.9551 31.1839 28.9956 31.1596 29.0362C31.1353 29.0632 31.0989 29.0902 31.0625 29.0902H30.4312C30.3705 29.0902 30.3098 29.0362 30.2977 28.9686C30.1521 28.2252 29.7757 27.9819 28.7804 27.9819C27.6636 27.9819 27.53 28.4145 27.53 28.7388C27.53 29.1308 27.6878 29.2524 29.193 29.4687C30.6862 29.685 31.3903 29.9959 31.3903 31.1583C31.3781 32.3478 30.5041 33.0237 28.9624 33.0237Z" fill="#539E43"/>
<path d="M12.4412 12.9378C12.4412 12.6945 12.3198 12.4646 12.1256 12.343L6.97861 9.04493C6.89353 8.99078 6.79649 8.96376 6.69944 8.9502H6.65081C6.55376 8.9502 6.4566 8.99078 6.37163 9.04493L1.22468 12.343C1.03037 12.4646 0.909058 12.6944 0.909058 12.9378L0.921241 21.8048C0.921241 21.9264 0.981949 22.048 1.079 22.1022C1.17615 22.1698 1.29746 22.1698 1.38254 22.1022L4.44158 20.1557C4.63578 20.0341 4.7572 19.8043 4.7572 19.561V15.4113C4.7572 15.1681 4.87851 14.9383 5.07282 14.8166L6.37163 13.9786C6.46879 13.911 6.57802 13.8838 6.68725 13.8838C6.79649 13.8838 6.90572 13.911 6.99079 13.9786L8.28961 14.8166C8.48392 14.9383 8.60523 15.168 8.60523 15.4113V19.561C8.60523 19.8043 8.72665 20.0341 8.92085 20.1557L11.9799 22.1022C12.077 22.1698 12.1984 22.1698 12.2955 22.1022C12.3927 22.048 12.4534 21.9264 12.4534 21.8048L12.4412 12.9378Z" fill="#333333"/>
<path d="M37.1807 0.73214C37.0836 0.677991 36.9622 0.677991 36.8771 0.73214C36.7801 0.799738 36.7194 0.907802 36.7194 1.02943V9.81547C36.7194 9.89652 36.683 9.97756 36.6101 10.0317C36.5373 10.0722 36.4645 10.0722 36.3917 10.0317L35.1049 9.2072C35.0106 9.14739 34.9039 9.11594 34.7954 9.11594C34.6868 9.11594 34.5801 9.14739 34.4858 9.2072L29.3388 12.5188C29.1446 12.6404 29.0232 12.8703 29.0232 13.1135V19.7232C29.0232 19.9664 29.1446 20.1964 29.3388 20.318L34.4858 23.6296C34.5801 23.6894 34.6868 23.7209 34.7954 23.7209C34.9039 23.7209 35.0106 23.6894 35.1049 23.6296L40.2519 20.318C40.4461 20.1964 40.5675 19.9666 40.5675 19.7232V3.24626C40.5675 2.98943 40.4461 2.75974 40.2519 2.63799L37.1808 0.73214H37.1807ZM36.7073 17.5471C36.7073 17.6147 36.683 17.6687 36.6344 17.6957L34.8743 18.8311C34.8497 18.8444 34.8227 18.8514 34.7954 18.8514C34.768 18.8514 34.741 18.8444 34.7164 18.8311L32.9563 17.6957C32.9077 17.6687 32.8834 17.6011 32.8834 17.5471V15.2762C32.8834 15.2086 32.9077 15.1546 32.9563 15.1276L34.7164 13.9921C34.741 13.9787 34.768 13.9718 34.7954 13.9718C34.8227 13.9718 34.8497 13.9787 34.8743 13.9921L36.6344 15.1276C36.683 15.1545 36.7073 15.2222 36.7073 15.2762V17.5471Z" fill="#333333"/>
<path d="M54.3088 15.2223C54.5031 15.1006 54.6124 14.8708 54.6124 14.6275V13.019C54.6124 12.7758 54.491 12.5459 54.3088 12.4243L49.1983 9.12626C49.104 9.06647 48.9973 9.03503 48.8888 9.03503C48.7802 9.03503 48.6736 9.06647 48.5792 9.12626L43.4323 12.4378C43.2379 12.5594 43.1166 12.7892 43.1166 13.0326V19.6423C43.1166 19.8855 43.2379 20.1153 43.4323 20.237L48.5428 23.481C48.7371 23.6026 48.9676 23.6026 49.1498 23.481L52.2452 21.5618C52.3423 21.5076 52.403 21.386 52.403 21.2644C52.403 21.1427 52.3423 21.0211 52.2452 20.967L47.0739 17.6554C46.9769 17.5879 46.9162 17.4797 46.9162 17.3581V15.29C46.9162 15.1684 46.9769 15.0467 47.0739 14.9926L48.6885 13.9653C48.7357 13.9322 48.7904 13.9146 48.8463 13.9146C48.9021 13.9146 48.9568 13.9322 49.0041 13.9653L50.6185 14.9926C50.7157 15.0602 50.7764 15.1682 50.7764 15.29V16.912C50.7764 17.0336 50.8371 17.1553 50.9342 17.2093C51.0313 17.2769 51.1526 17.2769 51.2498 17.2093L54.3088 15.2223Z" fill="#333333"/>
<path d="M48.8099 14.9112C48.8279 14.898 48.849 14.891 48.8705 14.891C48.8921 14.891 48.9132 14.898 48.9312 14.9112L49.9145 15.5465C49.951 15.5734 49.9752 15.614 49.9752 15.6681V16.9387C49.9752 16.9927 49.951 17.0333 49.9145 17.0603L48.9312 17.6956C48.9132 17.7088 48.8921 17.7159 48.8705 17.7159C48.849 17.7159 48.8279 17.7088 48.8099 17.6956L47.8266 17.0603C47.7901 17.0333 47.7659 16.9927 47.7659 16.9387V15.6681C47.7659 15.614 47.7901 15.5734 47.8266 15.5465L48.8099 14.9112Z" fill="#539E43"/>
<mask id="mask0" mask-type="alpha" maskUnits="userSpaceOnUse" x="15" y="9" width="12" height="15">
<path d="M21.0478 9.15324C20.9535 9.09345 20.8468 9.06201 20.7383 9.06201C20.6297 9.06201 20.5231 9.09345 20.4287 9.15324L15.3182 12.4376C15.1239 12.5592 15.0146 12.789 15.0146 13.0323V19.6151C15.0146 19.8583 15.1361 20.0882 15.3182 20.2098L20.4287 23.4944C20.5231 23.5542 20.6297 23.5856 20.7383 23.5856C20.8468 23.5856 20.9535 23.5542 21.0478 23.4944L26.1584 20.2098C26.3526 20.0882 26.462 19.8583 26.462 19.6151V13.0324C26.462 12.7892 26.3405 12.5594 26.1584 12.4377L21.0478 9.15324Z" fill="white"/>
</mask>
<g mask="url(#mask0)">
<path d="M21.0478 9.15324C20.9535 9.09345 20.8468 9.06201 20.7383 9.06201C20.6297 9.06201 20.5231 9.09345 20.4287 9.15324L15.3182 12.4376C15.1239 12.5592 15.0146 12.789 15.0146 13.0323V19.6151C15.0146 19.8583 15.1361 20.0882 15.3182 20.2098L20.4287 23.4944C20.5231 23.5542 20.6297 23.5856 20.7383 23.5856C20.8468 23.5856 20.9535 23.5542 21.0478 23.4944L26.1584 20.2098C26.3526 20.0882 26.462 19.8583 26.462 19.6151V13.0324C26.462 12.7892 26.3405 12.5594 26.1584 12.4377L21.0478 9.15324Z" fill="url(#paint0_linear)"/>
<path d="M26.1705 12.4379L21.0357 9.15341C20.9852 9.12504 20.9324 9.1024 20.8778 9.08582L15.1239 20.0615C15.1716 20.1263 15.2291 20.1813 15.2939 20.2238L20.4287 23.5084C20.5744 23.603 20.7443 23.63 20.9021 23.5758L26.3041 12.5732C26.2676 12.5192 26.219 12.4785 26.1705 12.438V12.4379Z" fill="url(#paint1_linear)"/>
<path fill-rule="evenodd" clip-rule="evenodd" d="M26.1826 20.2098C26.3283 20.1152 26.4375 19.953 26.4861 19.7773L20.8534 9.07199C20.7077 9.04498 20.5498 9.05843 20.4165 9.15304L15.318 12.4242L20.8169 23.589C20.8969 23.5745 20.9746 23.5472 21.0476 23.508L26.1825 20.2099L26.1826 20.2098Z" fill="url(#paint2_linear)"/>
<path fill-rule="evenodd" clip-rule="evenodd" d="M26.1827 20.2098L21.0599 23.4945C20.9876 23.5355 20.9097 23.5629 20.8293 23.5755L20.9264 23.7783L26.6075 20.1154V20.0342L26.4619 19.7638C26.4376 19.953 26.3284 20.1152 26.1827 20.2098Z" fill="url(#paint3_linear)"/>
<path fill-rule="evenodd" clip-rule="evenodd" d="M26.1827 20.2098L21.0599 23.4945C20.9876 23.5355 20.9097 23.5629 20.8293 23.5755L20.9264 23.7783L26.6075 20.1154V20.0342L26.4619 19.7638C26.4376 19.953 26.3284 20.1152 26.1827 20.2098Z" fill="url(#paint4_linear)"/>
</g>
<defs>
<linearGradient id="paint0_linear" x1="22.8204" y1="11.6018" x2="16.3242" y2="20.7687" gradientUnits="userSpaceOnUse">
<stop stop-color="#41873F"/>
<stop offset="0.3288" stop-color="#418B3D"/>
<stop offset="0.6352" stop-color="#419637"/>
<stop offset="0.9319" stop-color="#3FA92D"/>
<stop offset="1" stop-color="#3FAE2A"/>
</linearGradient>
<linearGradient id="paint1_linear" x1="19.9623" y1="17.0951" x2="34.6384" y2="9.93421" gradientUnits="userSpaceOnUse">
<stop offset="0.1376" stop-color="#41873F"/>
<stop offset="0.4032" stop-color="#54A044"/>
<stop offset="0.7136" stop-color="#66B848"/>
<stop offset="0.9081" stop-color="#6CC04A"/>
</linearGradient>
<linearGradient id="paint2_linear" x1="14.8278" y1="16.3239" x2="26.6536" y2="16.3239" gradientUnits="userSpaceOnUse">
<stop offset="0.09192" stop-color="#6CC04A"/>
<stop offset="0.2864" stop-color="#66B848"/>
<stop offset="0.5968" stop-color="#54A044"/>
<stop offset="0.8624" stop-color="#41873F"/>
</linearGradient>
<linearGradient id="paint3_linear" x1="14.8279" y1="21.7821" x2="26.6536" y2="21.7821" gradientUnits="userSpaceOnUse">
<stop offset="0.09192" stop-color="#6CC04A"/>
<stop offset="0.2864" stop-color="#66B848"/>
<stop offset="0.5968" stop-color="#54A044"/>
<stop offset="0.8624" stop-color="#41873F"/>
</linearGradient>
<linearGradient id="paint4_linear" x1="28.3764" y1="11.2904" x2="24.693" y2="28.6243" gradientUnits="userSpaceOnUse">
<stop stop-color="#41873F"/>
<stop offset="0.3288" stop-color="#418B3D"/>
<stop offset="0.6352" stop-color="#419637"/>
<stop offset="0.9319" stop-color="#3FA92D"/>
<stop offset="1" stop-color="#3FAE2A"/>
</linearGradient>
</defs>
</svg>
