<svg width="18" height="16" viewBox="0 0 18 16" fill="none" xmlns="http://www.w3.org/2000/svg">
<path d="M17.4375 4.87334C17.4375 3.42687 16.7662 2.17559 15.7874 1.55769C14.4948 0.705219 11.9377 0.124719 8.99353 0.125C5.60475 0.124719 2.73009 0.893375 1.70522 1.96016C1.00969 2.64388 0.5625 3.69378 0.5625 4.87363C0.5625 5.56494 3.276 5.79275 5.07291 5.55903C5.04591 5.60628 5.02312 5.6555 4.99922 5.70416C4.43166 6.44919 3.97125 7.80256 3.67931 8.83644C2.55037 9.74122 1.8135 11.4951 1.8135 11.4951V13.544C1.81298 13.8447 1.93191 14.1333 2.14415 14.3463C2.35639 14.5594 2.64454 14.6794 2.94525 14.68H2.98884V14.7396C2.9884 15.0403 3.10736 15.3288 3.31959 15.5417C3.53182 15.7547 3.81994 15.8747 4.12059 15.8753H5.68322C5.8321 15.875 5.97947 15.8454 6.11692 15.7882C6.25437 15.731 6.37921 15.6473 6.4843 15.5418C6.5894 15.4364 6.67269 15.3112 6.72942 15.1736C6.78616 15.036 6.81523 14.8885 6.81497 14.7396V14.6797H11.1845V14.7393C11.184 15.0399 11.303 15.3284 11.5151 15.5414C11.7273 15.7543 12.0153 15.8743 12.3159 15.875H13.8786C14.0274 15.8747 14.1748 15.8452 14.3123 15.7879C14.4497 15.7307 14.5746 15.647 14.6796 15.5415C14.7847 15.4361 14.868 15.311 14.9248 15.1733C14.9815 15.0357 15.0106 14.8882 15.0103 14.7393V14.6797H15.0539C15.2028 14.6794 15.3502 14.6498 15.4877 14.5926C15.6252 14.5354 15.7501 14.4516 15.8552 14.3462C15.9603 14.2407 16.0436 14.1155 16.1004 13.9778C16.1571 13.8401 16.1862 13.6926 16.1859 13.5437V11.4948C16.1859 11.4948 15.4488 9.74066 14.3198 8.83616C14.0408 7.84812 13.608 6.56787 13.0747 5.80569C13.0406 5.72291 13.0019 5.64207 12.9589 5.56353C14.7566 5.78994 17.4375 5.56016 17.4375 4.87334ZM8.99353 2.5415C9.57684 2.5415 10.1391 2.56962 10.6841 2.6135C10.5978 2.77522 10.5055 2.924 10.4288 2.97041C10.1579 3.13381 9.61059 3.23563 9 3.23563C8.38941 3.23563 7.84181 3.13409 7.57097 2.97041C7.49419 2.92372 7.40166 2.77466 7.31559 2.61238C7.87373 2.56634 8.4335 2.54269 8.99353 2.5415ZM5.40562 1.83472C5.47791 1.72278 5.68519 1.67469 5.90653 1.67469C6.156 1.67469 6.42347 1.73544 6.53569 1.83472C6.84338 2.10528 7.07597 2.99966 7.42556 3.21116C7.76278 3.41506 8.38125 3.51687 9 3.51687C9.61875 3.51687 10.2367 3.41506 10.5742 3.21116C10.924 2.99966 11.1566 2.10528 11.464 1.83472C11.5765 1.73544 11.844 1.67469 12.0935 1.67469C12.3148 1.67469 12.5224 1.7225 12.5947 1.83472C12.935 2.36263 12.2012 3.58212 11.5183 4.22281C10.8014 3.84481 9.93178 3.62797 9.0405 3.62797C8.13206 3.62797 7.23966 3.85325 6.50447 4.24503C5.81597 3.61081 5.06109 2.36881 5.40562 1.83472ZM12.9738 6.1685C13.1006 6.64325 13.0514 7.11716 12.8635 7.55647L12.0122 6.16709L11.6429 6.29169L12.4689 8.19463C11.7863 9.01109 10.5415 9.58934 8.96597 9.58934C6.24713 9.58934 4.54781 7.87288 5.04844 6.16878C5.45203 4.796 7.21041 3.86478 9.04163 3.86478C10.8728 3.86478 12.6065 4.79572 12.9738 6.1685Z" fill="#4682B4"/>
<path d="M9.02533 5.1051C8.17005 5.1051 7.41489 5.57704 7.33192 6.20901C7.24023 6.90201 7.98077 7.51598 8.99355 7.51598C10.006 7.51598 10.7623 6.90173 10.6892 6.20901C10.6228 5.57704 9.87977 5.1051 9.02533 5.1051Z" fill="#4682B4"/>
<path d="M8.53454 4.7659C8.80286 4.93971 9.25173 4.93971 9.52483 4.7659C9.79033 4.59686 9.77739 4.33277 9.50908 4.17499C9.24751 4.02171 8.8307 4.02171 8.56548 4.17499C8.29239 4.33277 8.27326 4.59686 8.53454 4.7659Z" fill="#4682B4"/>
<path d="M10.8534 5.37537C11.2581 5.37537 11.5492 5.16359 11.504 4.91103C11.4609 4.66803 11.1198 4.47791 10.742 4.47791C10.3632 4.47791 10.0707 4.66859 10.0876 4.91103C10.105 5.16359 10.4473 5.37537 10.8534 5.37537Z" fill="#4682B4"/>
<path d="M10.2746 7.62089C10.3005 7.9927 10.7221 8.30686 11.2179 8.30686C11.7112 8.30686 12.0561 7.9927 11.9897 7.62089C11.9258 7.26595 11.5076 6.99033 11.054 6.99033C10.5986 6.99033 10.2502 7.26623 10.2746 7.62089Z" fill="#4682B4"/>
<path d="M9.60358 7.83883C9.26242 7.57924 8.72129 7.57924 8.37423 7.83883C8.01479 8.10686 7.98133 8.56136 8.32079 8.85555C8.67348 9.16014 9.26973 9.16014 9.62945 8.85555C9.97764 8.56136 9.9557 8.10658 9.60358 7.83883Z" fill="#4682B4"/>
<path d="M6.94632 6.99033C6.49154 6.99033 6.06657 7.26567 5.99345 7.62089C5.91723 7.99186 6.25304 8.30686 6.74776 8.30686C7.24248 8.30686 7.67336 7.99186 7.70879 7.62089C7.74226 7.26595 7.40083 6.99033 6.94632 6.99033Z" fill="#4682B4"/>
<path d="M6.75534 6.52765C7.09959 6.30912 7.14909 5.96881 6.88387 5.76659C6.62597 5.57056 6.15515 5.57056 5.81569 5.76659C5.46665 5.96881 5.37525 6.30912 5.62809 6.52765C5.88881 6.75293 6.40097 6.75293 6.75534 6.52765Z" fill="#4682B4"/>
<path d="M7.18961 5.37537C7.59433 5.37537 7.94392 5.16331 7.96755 4.91131C7.99117 4.66803 7.70289 4.47791 7.32489 4.47791C6.94633 4.47791 6.60123 4.66803 6.55145 4.91131C6.49942 5.16331 6.78405 5.37537 7.18961 5.37537Z" fill="#4682B4"/>
</svg>
