<svg width="61" height="61" viewBox="0 0 61 61" fill="none" xmlns="http://www.w3.org/2000/svg">
<circle cx="30.5" cy="30.5" r="30.5" fill="#4682B4" fill-opacity="0.3"/>
<path d="M38 29.7487H40.5C40.5 23.3362 35.6587 18.5 29.2375 18.5V21C34.315 21 38 24.6787 38 29.7487Z" fill="black"/>
<path d="M29.25 26.0001C31.8788 26.0001 33 27.1213 33 29.7501H35.5C35.5 25.7188 33.2813 23.5001 29.25 23.5001V26.0001ZM33.5275 32.8038C33.2873 32.5855 32.9717 32.4691 32.6473 32.4791C32.3228 32.4891 32.015 32.6248 31.7888 32.8576L28.7975 35.9338C28.0775 35.7963 26.63 35.3451 25.14 33.8588C23.65 32.3676 23.1988 30.9163 23.065 30.2013L26.1388 27.2088C26.3718 26.9827 26.5077 26.6748 26.5177 26.3503C26.5278 26.0258 26.4111 25.7101 26.1925 25.4701L21.5738 20.3913C21.3551 20.1505 21.0511 20.0044 20.7265 19.9841C20.4018 19.9638 20.082 20.0709 19.835 20.2826L17.1225 22.6088C16.9064 22.8257 16.7774 23.1144 16.76 23.4201C16.7413 23.7326 16.3838 31.1351 22.1238 36.8776C27.1313 41.8838 33.4038 42.2501 35.1313 42.2501C35.3838 42.2501 35.5388 42.2426 35.58 42.2401C35.8857 42.2229 36.1742 42.0934 36.39 41.8763L38.715 39.1626C38.9268 38.9157 39.0341 38.596 39.014 38.2714C38.994 37.9467 38.8481 37.6427 38.6075 37.4238L33.5275 32.8038Z" fill="black"/>
</svg>
