<svg width="46" height="46" viewBox="0 0 46 46" fill="none" xmlns="http://www.w3.org/2000/svg">
<path d="M37.7655 15.0934C37.2781 14.909 36.7865 14.738 36.2913 14.5809C36.3745 14.2059 36.451 13.8354 36.519 13.4715C37.6351 7.49495 36.9055 2.68015 34.4134 1.09489C32.024 -0.424848 28.1164 1.15982 24.1699 4.9487C23.781 5.32278 23.4007 5.70764 23.0294 6.10291C22.7808 5.84007 22.5278 5.58233 22.2706 5.32982C18.1345 1.27864 13.9887 -0.428796 11.4993 1.16101C9.1121 2.68548 8.40522 7.21173 9.40999 12.8758C9.50995 13.4368 9.62283 13.9949 9.74849 14.5495C9.16166 14.7334 8.5954 14.9292 8.05347 15.1377C3.20422 17.0028 0.107422 19.9256 0.107422 22.9574C0.107422 26.0886 3.43198 29.2294 8.48269 31.1338C8.89216 31.2875 9.30504 31.43 9.72094 31.5611C9.58587 32.1584 9.46595 32.7599 9.36133 33.3646C8.40343 38.9304 9.15146 43.3497 11.5323 44.8645C13.9912 46.4288 18.1184 44.8211 22.1369 40.9457C22.4628 40.6307 22.7815 40.3067 23.0927 39.9741C23.4948 40.4021 23.9077 40.8177 24.3308 41.2203C28.2236 44.9154 32.068 46.4075 34.4465 44.8886C36.9032 43.3197 37.7016 38.5722 36.665 32.7962C36.5834 32.3437 36.4918 31.8934 36.3904 31.4458C36.6802 31.3511 36.9647 31.2536 37.242 31.1521C42.4928 29.2331 45.9091 26.1305 45.9091 22.9574C45.9091 19.9146 42.7123 16.972 37.7655 15.0934ZM36.6267 29.1034C36.3763 29.1948 36.1193 29.283 35.8574 29.3689C35.2777 27.3445 34.4955 25.192 33.5382 22.9678C34.4517 20.7968 35.2038 18.6717 35.7672 16.6605C36.2358 16.8102 36.6904 16.9678 37.1288 17.1342C41.3672 18.744 43.9525 21.1236 43.9525 22.9574C43.9525 24.9105 41.1604 27.4461 36.6267 29.1034ZM34.7457 33.2154C35.204 35.7694 35.2693 38.0786 34.9657 39.8839C34.6931 41.5061 34.1445 42.5875 33.4661 43.0207C32.0228 43.9424 28.936 42.7444 25.607 39.5841C25.2134 39.2098 24.8294 38.8234 24.4553 38.4255C25.746 36.8685 27.0358 35.0584 28.2946 33.048C30.5088 32.8313 32.6007 32.4769 34.4977 31.9931C34.5911 32.409 34.6741 32.8167 34.7457 33.2154ZM15.7222 42.8614C14.312 43.4107 13.1888 43.4265 12.5098 42.9946C11.0651 42.0755 10.4645 38.527 11.2837 33.7673C11.3811 33.2048 11.4926 32.6455 11.6181 32.0898C13.4942 32.5477 15.5709 32.8769 17.7903 33.0755C19.0577 35.0427 20.3847 36.8507 21.7221 38.434C21.4378 38.7374 21.1469 39.033 20.8495 39.3206C19.0724 41.0342 17.2916 42.25 15.7222 42.8614ZM9.11568 29.0914C6.88231 28.2492 5.0379 27.1548 3.7737 25.9605C2.63761 24.8875 2.06419 23.8219 2.06419 22.9574C2.06419 21.1175 4.55054 18.7708 8.69756 17.1759C9.20084 16.9825 9.72756 16.7999 10.2741 16.6286C10.8474 18.6852 11.5992 20.8355 12.5064 23.0099C11.5874 25.2165 10.8248 27.4011 10.246 29.482C9.86642 29.362 9.48951 29.2318 9.11568 29.0914ZM11.3303 12.4611C10.4695 7.60844 11.0411 3.94785 12.4798 3.0291C14.012 2.05055 17.4002 3.44574 20.9715 6.9439C21.2044 7.17253 21.4335 7.40579 21.6587 7.64357C20.328 9.21995 19.0131 11.0146 17.757 12.9702C15.6029 13.1904 13.5409 13.5441 11.6451 14.018C11.5283 13.5021 11.4234 12.9831 11.3303 12.4613V12.4611ZM31.0871 17.843C30.6393 16.9897 30.1749 16.1472 29.6942 15.3161C31.1556 15.52 32.5558 15.7905 33.8706 16.1213C33.4759 17.5171 32.9839 18.9763 32.4048 20.4723C31.9814 19.5863 31.5421 18.7097 31.0871 17.843ZM23.0303 9.1862C23.9327 10.2648 24.8366 11.469 25.7256 12.7755C23.9221 12.6816 22.1157 12.6812 20.3122 12.7744C21.2021 11.4798 22.1137 10.2773 23.0303 9.1862ZM14.9218 17.8578C14.4724 18.7175 14.0413 19.5886 13.6288 20.4705C13.0591 18.9798 12.5716 17.514 12.1735 16.0984C13.4803 15.7759 14.8738 15.5123 16.3259 15.3121C15.8398 16.1484 15.3717 16.9971 14.9218 17.8576V17.8578ZM16.3675 30.7562C14.8674 30.5715 13.4529 30.3214 12.1465 30.0076C12.5508 28.5668 13.0491 27.0698 13.6311 25.5471C14.0452 26.4296 14.4781 27.3013 14.9295 28.1614C15.3935 29.0456 15.8741 29.9117 16.3675 30.7562ZM23.0843 36.8805C22.1568 35.7769 21.2318 34.5557 20.3285 33.2425C21.2055 33.2803 22.0996 33.2997 23.0083 33.2997C23.9418 33.2997 24.8647 33.2766 25.773 33.232C24.8811 34.569 23.9806 35.7919 23.0843 36.8805ZM32.4232 25.4693C33.0354 27.0088 33.5514 28.4979 33.9611 29.914C32.6332 30.2484 31.1994 30.5176 29.6887 30.7175C30.1728 29.8709 30.6416 29.0138 31.0948 28.1466C31.5555 27.2652 31.9984 26.3725 32.4232 25.4693ZM29.3999 27.0682C28.7061 28.3977 27.9733 29.702 27.2027 30.979C25.8067 31.0881 24.4077 31.1423 23.0083 31.1415C21.5829 31.1415 20.1965 31.0925 18.8614 30.997C18.0707 29.7229 17.3239 28.4164 16.6227 27.08H16.6229C15.925 25.7508 15.2731 24.3927 14.6686 23.0089C15.2715 21.6247 15.9214 20.2661 16.617 18.9358L16.6168 18.936C17.312 17.6054 18.0528 16.3044 18.8376 15.0358C20.1997 14.9221 21.5965 14.8629 23.0081 14.8629H23.0083C24.4263 14.8629 25.8249 14.9227 27.1866 15.0372C27.9634 16.3039 28.6995 17.6004 29.3935 18.9244C30.0913 20.2517 30.7498 21.6037 31.368 22.9783C30.7562 24.3669 30.0997 25.7311 29.3999 27.0682ZM33.4362 2.96476C34.9698 3.94055 35.5663 7.87548 34.6027 13.0357C34.5411 13.3649 34.4721 13.7002 34.3969 14.0403C32.4965 13.5563 30.4331 13.1965 28.2728 12.9729C27.0143 10.9959 25.7102 9.19844 24.4011 7.64239C24.7442 7.27755 25.0954 6.92218 25.4545 6.5766C28.836 3.33048 31.9963 2.04877 33.4362 2.96476ZM23.0083 18.4455C25.267 18.4455 27.0982 20.4656 27.0982 22.9574C27.0982 25.4492 25.267 27.4692 23.0083 27.4692C20.7495 27.4692 18.9183 25.4492 18.9183 22.9574C18.9183 20.4656 20.7495 18.4455 23.0083 18.4455Z" fill="#00D8FF"/>
</svg>
