<svg width="42" height="40" viewBox="0 0 42 40" fill="none" xmlns="http://www.w3.org/2000/svg">
<g clip-path="url(#clip0)">
<path d="M28.5161 27.6295C30.0291 27.4731 31.177 26.1714 31.1247 24.6092C31.0727 23.0471 29.7682 21.7974 28.203 21.7974H28.0987C26.4812 21.8495 25.2291 23.2033 25.2813 24.8175C25.3335 25.5986 25.6464 26.2755 26.116 26.7441C24.3421 30.233 21.6291 32.7845 17.5595 34.9194C14.7942 36.3774 11.9247 36.8982 9.05521 36.5338C6.70731 36.2213 4.88121 35.1799 3.73321 33.4614C2.06374 30.9099 1.90727 28.15 3.31601 25.3903C4.30737 23.4115 5.87242 21.9535 6.86379 21.2245C6.6551 20.5476 6.342 19.4021 6.18553 18.569C-1.37978 24.0365 -0.597092 31.4307 1.69859 34.9194C3.42027 37.5231 6.916 39.1373 10.7769 39.1373C11.8203 39.1373 12.8637 39.0331 13.9073 38.7729C20.5857 37.471 25.6466 33.5135 28.5161 27.6295ZM37.6988 21.1726C33.7335 16.5381 27.8901 13.9866 21.2117 13.9866H20.377C19.9074 13.0494 18.916 12.4244 17.8204 12.4244H17.716C16.0987 12.4765 14.8466 13.8303 14.8987 15.4447C14.9509 17.0067 16.2552 18.2565 17.8204 18.2565H17.9247C19.0725 18.2044 20.0639 17.4754 20.4812 16.486H21.4204C25.3857 16.486 29.1422 17.6315 32.5336 19.8707C35.1423 21.5891 37.0206 23.8282 38.064 26.5359C38.9509 28.7229 38.8987 30.8578 37.9596 32.6804C36.4988 35.4402 34.0466 36.9503 30.8118 36.9503C28.7248 36.9503 26.7422 36.3253 25.6986 35.8567C25.1248 36.3774 24.0812 37.2105 23.3508 37.7314C25.5944 38.7727 27.8901 39.3456 30.0813 39.3456C35.09 39.3456 38.7945 36.5857 40.2032 33.826C41.7162 30.8057 41.6118 25.5986 37.6988 21.1726ZM11.1943 28.5145C11.2465 30.0767 12.5508 31.3263 14.116 31.3263H14.2204C15.8378 31.2744 17.0899 29.9204 17.0377 28.3062C16.9857 26.744 15.6812 25.4944 14.116 25.4944H14.0117C13.9073 25.4944 13.7507 25.4944 13.6466 25.5463C11.5074 22.0055 10.6204 18.1523 10.9335 13.9865C11.142 10.8622 12.1856 8.15439 14.0117 5.91525C15.5247 3.98858 18.4464 3.0513 20.4292 2.99936C25.9595 2.89514 28.3073 9.76857 28.4639 12.5285C29.1422 12.6846 30.29 13.0492 31.0727 13.3096C30.4465 4.87407 25.2291 0.5 20.2205 0.5C15.5247 0.5 11.1943 3.88469 9.47241 8.88356C7.07247 15.5487 8.63768 21.9535 11.5594 27.0045C11.2987 27.3689 11.142 27.9418 11.1943 28.5146V28.5145Z" fill="#764ABC"/>
</g>
<defs>
<clipPath id="clip0">
<rect width="41" height="39" fill="white" transform="translate(0.107422 0.5)"/>
</clipPath>
</defs>
</svg>
