<svg width="34" height="34" viewBox="0 0 34 34" fill="none" xmlns="http://www.w3.org/2000/svg">
<path d="M17 0C21.5087 0 25.8327 1.79107 29.0208 4.97919C32.2089 8.1673 34 12.4913 34 17C34 21.5087 32.2089 25.8327 29.0208 29.0208C25.8327 32.2089 21.5087 34 17 34C12.4913 34 8.1673 32.2089 4.97918 29.0208C1.79107 25.8327 0 21.5087 0 17C0 12.4913 1.79107 8.1673 4.97918 4.97919C8.1673 1.79107 12.4913 0 17 0V0ZM9.5625 15.9375C9.28071 15.9375 9.01046 16.0494 8.8112 16.2487C8.61194 16.448 8.5 16.7182 8.5 17C8.5 17.2818 8.61194 17.552 8.8112 17.7513C9.01046 17.9506 9.28071 18.0625 9.5625 18.0625H21.8726L17.3102 22.6227C17.2115 22.7215 17.1331 22.8388 17.0796 22.9679C17.0262 23.097 16.9987 23.2353 16.9987 23.375C16.9987 23.5147 17.0262 23.653 17.0796 23.7821C17.1331 23.9112 17.2115 24.0285 17.3102 24.1273C17.409 24.226 17.5263 24.3044 17.6554 24.3579C17.7845 24.4113 17.9228 24.4388 18.0625 24.4388C18.2022 24.4388 18.3405 24.4113 18.4696 24.3579C18.5987 24.3044 18.716 24.226 18.8148 24.1273L25.1898 17.7523C25.2887 17.6536 25.3672 17.5363 25.4208 17.4072C25.4743 17.2781 25.5019 17.1398 25.5019 17C25.5019 16.8602 25.4743 16.7219 25.4208 16.5928C25.3672 16.4637 25.2887 16.3464 25.1898 16.2477L18.8148 9.87275C18.6152 9.67324 18.3446 9.56116 18.0625 9.56116C17.7804 9.56116 17.5098 9.67324 17.3102 9.87275C17.1107 10.0723 16.9987 10.3429 16.9987 10.625C16.9987 10.9071 17.1107 11.1777 17.3102 11.3773L21.8726 15.9375H9.5625Z" fill="#4682B4"/>
</svg>
