<svg width="62" height="62" viewBox="0 0 62 62" fill="none" xmlns="http://www.w3.org/2000/svg">
<path d="M31.3313 36.2312C30.3994 36.6593 29.3783 37.2173 27.3343 38.3392C26.5593 38.7751 25.7494 39.211 24.9957 39.6218C24.9434 39.5695 24.8891 39.5036 24.8368 39.4493C20.7933 35.1287 13.3145 32.0772 13.6323 26.2743C13.7504 24.1605 14.477 18.6115 27.9949 11.8729C39.1201 6.38978 47.9725 7.90878 49.5012 11.2781C51.6983 16.0812 44.7563 25.0188 33.2669 26.315C31.9953 26.573 30.682 26.5418 29.424 26.2239C28.1661 25.906 26.9957 25.3094 25.9993 24.4783C25.3909 23.8176 25.2999 23.7788 25.0751 23.9106C24.7051 24.1043 24.9434 24.703 25.0751 25.046C25.5134 25.8395 26.1063 26.537 26.8188 27.0974C27.5313 27.6579 28.3489 28.0697 29.2233 28.3087C33.7447 29.286 38.4588 28.819 42.7006 26.9738C49.6639 24.2787 55.1006 16.7864 53.5079 10.505C51.9095 4.13646 41.3385 2.03621 31.3371 5.58959C25.0737 7.70029 19.2869 11.0229 14.3065 15.3682C8.79625 20.5219 7.92438 25.0014 8.28088 26.8769C9.5635 33.5361 18.7434 37.8703 22.4246 41.0807C22.2309 41.1873 22.0681 41.2745 21.9228 41.3578C20.0861 42.2703 13.0839 45.9303 11.3383 49.8014C9.35619 54.1879 11.656 57.3325 13.175 57.7548C15.4641 58.3032 17.8674 58.1229 20.0491 57.2393C22.2308 56.3556 24.0821 54.8126 25.3444 52.8258C26.4164 51.1783 27.0747 49.2963 27.2632 47.3398C27.4518 45.3833 27.1651 43.4103 26.4275 41.5883C26.8627 41.2412 27.3268 40.932 27.8148 40.6642C28.7525 40.11 29.6457 39.5637 30.4381 39.1413C33.1514 37.8704 36.1123 37.216 39.1084 37.2251C45.3976 37.9652 46.6395 41.8886 46.4012 43.5413C46.2897 44.1277 46.0539 44.6834 45.7097 45.171C45.3655 45.6586 44.9208 46.0668 44.4056 46.3681C43.9696 46.6452 43.8243 46.7382 43.8631 46.9358C43.9154 47.2265 44.1266 47.2129 44.4966 47.1606C45.4415 46.862 46.274 46.2845 46.8847 45.504C47.4953 44.7236 47.8556 43.7766 47.9183 42.7877C48.112 38.9127 44.4172 34.6618 37.8762 34.7005C35.9176 34.7039 33.9786 35.0902 32.1683 35.8378C31.8777 35.958 31.5955 36.0871 31.3216 36.2253L31.3313 36.2312ZM21.9829 51.4192C19.8943 53.6919 16.988 54.5502 15.7325 53.8237C14.3763 53.0487 14.9129 49.6871 17.4763 47.2826C18.9944 45.9148 20.6353 44.6896 22.3781 43.6227C22.6823 43.429 23.1318 43.1732 23.6724 42.8477L23.8177 42.7683L24.1354 42.5745C24.5926 44.1073 24.6342 45.734 24.256 47.2881C23.8777 48.8423 23.0933 50.268 21.9829 51.4192Z" fill="#CD6799"/>
</svg>
