<svg width="18" height="18" viewBox="0 0 18 18" fill="none" xmlns="http://www.w3.org/2000/svg">
<path d="M14.6644 2.24768C14.4838 2.26082 14.3066 2.30318 14.1396 2.37312H14.1373C13.977 2.43668 13.2148 2.75731 12.0561 3.24331L7.90369 4.99212C4.92413 6.2465 1.99519 7.48174 1.99519 7.48174L2.03007 7.46825C2.03007 7.46825 1.82813 7.53462 1.61719 7.67918C1.48688 7.76211 1.37474 7.87061 1.28757 7.99812C1.18407 8.14999 1.10082 8.38231 1.13176 8.6225C1.18238 9.02862 1.44563 9.27218 1.63463 9.40662C1.82588 9.54274 2.00813 9.60631 2.00813 9.60631H2.01263L4.75932 10.5316C4.88251 10.9271 5.59632 13.2738 5.76788 13.8144C5.86913 14.1372 5.96757 14.3392 6.09076 14.4933C6.15038 14.5721 6.22013 14.6379 6.30394 14.6907C6.34751 14.7161 6.39397 14.7361 6.44232 14.7504L6.41419 14.7436C6.42263 14.7459 6.42938 14.7526 6.43557 14.7549C6.45807 14.7611 6.47326 14.7633 6.50194 14.7678C6.93676 14.8994 7.28607 14.6294 7.28607 14.6294L7.30576 14.6137L8.92744 13.1371L11.6454 15.2223L11.7073 15.2487C12.2738 15.4974 12.8475 15.359 13.1507 15.1149C13.4561 14.8691 13.5748 14.5546 13.5748 14.5546L13.5945 14.504L15.6949 3.74393C15.7545 3.47843 15.7697 3.22981 15.7039 2.9885C15.636 2.74427 15.4793 2.53422 15.2646 2.39956C15.0842 2.28993 14.8751 2.23702 14.6644 2.24768ZM14.6076 3.40081C14.6053 3.43625 14.6121 3.43231 14.5963 3.50037V3.50656L12.5156 14.1547C12.5066 14.1699 12.4914 14.2031 12.4498 14.2362C12.4059 14.2711 12.3711 14.2931 12.1883 14.2205L8.86388 11.6718L6.85576 13.5022L7.27763 10.8078L12.7091 5.74531C12.933 5.53718 12.8582 5.49331 12.8582 5.49331C12.8739 5.23793 12.5201 5.4185 12.5201 5.4185L5.67113 9.66143L5.66888 9.65018L2.38613 8.54487V8.54262L2.37769 8.54093C2.38345 8.53902 2.38908 8.53677 2.39457 8.53418L2.41257 8.52518L2.43001 8.519C2.43001 8.519 5.36119 7.28374 8.34076 6.02937C9.83251 5.40106 11.3355 4.76825 12.4914 4.28C13.6474 3.79456 14.5018 3.4385 14.5502 3.41937C14.5963 3.40137 14.5744 3.40137 14.6076 3.40137V3.40081Z" fill="white"/>
</svg>
