<svg width="20" height="21" viewBox="0 0 20 21" fill="none" xmlns="http://www.w3.org/2000/svg">
<path d="M11.7235 7.84419L9.30161 6.44753C9.15149 6.35774 8.96155 6.398 8.85172 6.52815L7.69377 8.00975C7.47373 7.98005 7.2437 7.96037 7.0137 7.96069C6.7837 7.96101 6.55373 7.98132 6.32377 8.01164L5.16173 6.53324C5.05155 6.40339 4.86149 6.36366 4.71162 6.45386L2.29355 7.8572C2.14368 7.9474 2.08392 8.12749 2.14414 8.2874L2.84654 10.0264C2.56704 10.3868 2.33758 10.7771 2.15817 11.2074L0.308532 11.4699C0.227677 11.4868 0.154971 11.5307 0.102359 11.5944C0.049746 11.6581 0.0203553 11.7377 0.0190146 11.8203L0.0228759 14.6203C0.0231103 14.7903 0.153317 14.9402 0.323358 14.9699L2.17372 15.2274C2.35429 15.6471 2.58485 16.0468 2.86534 16.4064L2.16774 18.1474C2.10796 18.3075 2.16821 18.4874 2.31833 18.5772L4.74026 19.9738C4.89039 20.0636 5.08033 20.0234 5.19015 19.8932L6.34811 18.4116C6.56815 18.4413 6.79818 18.461 7.02818 18.4607C7.25818 18.4604 7.48815 18.44 7.71811 18.4097L8.88015 19.8881C8.99033 20.018 9.18038 20.0577 9.33026 19.9675L11.7483 18.5642C11.8982 18.474 11.958 18.2939 11.8977 18.134L11.1953 16.3949C11.4748 16.0345 11.7043 15.6442 11.8837 15.214L13.7333 14.9514C13.8933 14.9212 14.0231 14.771 14.0229 14.601L14.019 11.801C14.0188 11.631 13.8886 11.4812 13.7185 11.4514L11.8682 11.194C11.6876 10.7742 11.457 10.3746 11.1765 10.015L11.8741 8.27399C11.9339 8.1139 11.8737 7.93399 11.7235 7.84419ZM9.02094 13.2079C9.02245 14.3079 8.1237 15.2092 7.0237 15.2107C5.9237 15.2122 5.02246 14.3134 5.02094 13.2134C5.01942 12.1134 5.91818 11.2122 7.01818 11.2107C8.11818 11.2092 9.01942 12.1079 9.02094 13.2079ZM16.6729 0.0873609L15.9342 1.04838C15.7941 1.02857 15.6441 1.00878 15.4941 1.00899C15.3441 1.00919 15.1941 1.0194 15.0542 1.0496L14.3129 0.100616C14.2428 0.0207124 14.1227 -0.00912088 14.0228 0.0510164L12.474 0.953153C12.3741 1.00329 12.3443 1.12333 12.3744 1.23329L12.826 2.34267C12.6463 2.57292 12.4966 2.82312 12.387 3.10327L11.2072 3.2749C11.1538 3.27893 11.1038 3.30268 11.0669 3.34154C11.0299 3.3804 11.0088 3.4316 11.0075 3.48518L11.01 5.27518C11.0102 5.38518 11.0903 5.48506 11.2003 5.49491L12.3805 5.66329C12.5009 5.93312 12.6413 6.19293 12.8216 6.42268L12.3731 7.5333C12.354 7.58428 12.3536 7.64038 12.372 7.69163C12.3904 7.74287 12.4264 7.78594 12.4735 7.81316L14.0247 8.71102C14.1248 8.76088 14.2448 8.75072 14.3147 8.66062L15.0534 7.7096C15.3453 7.75044 15.6415 7.75003 15.9334 7.70839L16.6747 8.65737C16.7448 8.73727 16.8648 8.7671 16.9647 8.70697L18.5135 7.80483C18.6134 7.75469 18.6433 7.63465 18.6131 7.52469L18.1616 6.41531C18.3413 6.18507 18.4909 5.93486 18.6005 5.65471L19.7803 5.48308C19.8903 5.46293 19.9701 5.37282 19.97 5.26282L19.9675 3.47282C19.9674 3.36282 19.8872 3.26293 19.7772 3.25308L18.597 3.08471C18.4766 2.81488 18.3363 2.55507 18.156 2.33532L18.6044 1.2147C18.6443 1.11464 18.6041 0.994698 18.504 0.934837L16.9528 0.0369756C16.8627 -0.0228997 16.7427 0.00726456 16.6729 0.0873609ZM16.8388 4.37714C16.8391 4.73531 16.6972 5.07896 16.4442 5.33248C16.1912 5.586 15.8478 5.72864 15.4896 5.729C15.1315 5.72936 14.7878 5.58742 14.5343 5.33441C14.2808 5.0814 14.1381 4.73804 14.1378 4.37986C14.1374 4.02169 14.2793 3.67804 14.5324 3.42451C14.7854 3.17099 15.1287 3.02836 15.4869 3.028C15.8451 3.02764 16.1887 3.16958 16.4423 3.42259C16.6958 3.6756 16.8384 4.01896 16.8388 4.37714Z" fill="#4682B4"/>
</svg>
