<svg width="28" height="28" viewBox="0 0 28 28" fill="none" xmlns="http://www.w3.org/2000/svg">
<g clip-path="url(#clip0)">
<path d="M26.7284 15.7881C26.7198 15.8355 26.7138 15.8835 26.7048 15.931L26.6587 15.659C26.684 15.7014 26.7048 15.7455 26.7284 15.7882C26.869 15.0258 26.9401 14.2523 26.9409 13.477C26.9409 11.756 26.6039 10.0862 25.9382 8.51442C25.2959 6.99609 24.377 5.63249 23.2055 4.46178C22.0356 3.29108 20.6711 2.37213 19.1536 1.72993C17.5822 1.06506 15.9125 0.728084 14.1915 0.728084C13.3805 0.728084 12.5679 0.804233 11.7773 0.956002C11.7756 0.956424 11.7735 0.956424 11.7713 0.956846C11.8158 0.980365 11.8608 1.00135 11.9043 1.02572L11.6362 0.983741C11.6811 0.975303 11.7265 0.965811 11.7713 0.956846C10.6867 0.380143 9.46661 0.0721741 8.23179 0.0721741C6.21586 0.0721741 4.32027 0.857178 2.89465 2.28322C1.46945 3.70884 0.684021 5.60433 0.684021 7.62036C0.684705 8.90099 1.01152 10.1604 1.63366 11.2797C1.64178 11.2335 1.64737 11.1869 1.65634 11.1407L1.70253 11.408C1.67859 11.3661 1.6576 11.3224 1.63366 11.2797C1.50677 12.0053 1.44255 12.7404 1.44171 13.477C1.44171 15.1985 1.77868 16.8679 2.4444 18.4401C3.08576 19.9588 4.00513 21.3215 5.17541 22.4922C6.34695 23.663 7.70972 24.5832 9.22889 25.2237C10.8004 25.8899 12.4705 26.2273 14.1915 26.2273C14.9407 26.2273 15.6915 26.1588 16.4243 26.0289C16.3816 26.0049 16.338 25.9831 16.2943 25.9579L16.5668 26.0058C16.5197 26.0147 16.4723 26.0203 16.4244 26.0289C17.557 26.6699 18.8361 27.0069 20.1375 27.0072C22.1531 27.0072 24.0478 26.2234 25.4734 24.797C26.8993 23.3722 27.684 21.4763 27.684 19.4603C27.6833 18.1748 27.3544 16.9109 26.7284 15.7882V15.7881ZM14.2423 21.2852C9.71299 21.2852 7.68662 19.0583 7.68662 17.3895C7.68662 16.5334 8.31859 15.9335 9.18955 15.9335C11.1279 15.9335 10.6258 18.7167 14.2423 18.7167C16.0938 18.7167 17.1162 17.7114 17.1162 16.6827C17.1162 16.064 16.8109 15.378 15.5918 15.0774L11.5631 14.0718C8.31859 13.2581 7.72976 11.5041 7.72976 9.85535C7.72976 6.43215 10.9529 5.1468 13.9798 5.1468C16.7681 5.1468 20.055 6.68781 20.055 8.7415C20.055 9.62153 19.293 10.1333 18.4224 10.1333C16.7681 10.1333 17.0726 7.84353 13.7404 7.84353C12.0869 7.84353 11.171 8.59236 11.171 9.66382C11.171 10.7333 12.4769 11.0749 13.6108 11.3331L16.5928 11.995C19.8592 12.7227 20.6874 14.6298 20.6874 16.4261C20.6874 19.208 18.552 21.2852 14.2423 21.2852ZM16.2943 25.9579C16.338 25.9832 16.3816 26.0049 16.4244 26.0289C16.4723 26.0203 16.5197 26.0147 16.5668 26.0057L16.2943 25.9579ZM26.7048 15.931C26.7138 15.8835 26.7198 15.8356 26.7284 15.7882C26.7048 15.7454 26.6839 15.7014 26.6588 15.659L26.7048 15.931V15.931ZM1.65634 11.1407C1.64737 11.1869 1.64178 11.2335 1.63366 11.2797C1.6576 11.3224 1.67859 11.3661 1.70253 11.408L1.65634 11.1407V11.1407ZM11.9043 1.02572C11.8608 1.00135 11.8158 0.980365 11.7714 0.956846C11.7265 0.965811 11.6811 0.975198 11.6362 0.983741L11.9043 1.02572Z" fill="#00AFF0"/>
</g>
<defs>
<clipPath id="clip0">
<rect width="27" height="27" fill="white" transform="translate(0.684021 0.0721741)"/>
</clipPath>
</defs>
</svg>
