<svg width="16" height="16" viewBox="0 0 16 16" fill="none" xmlns="http://www.w3.org/2000/svg">
<path d="M7.91667 7.125C8.96648 7.125 9.9733 7.54204 10.7156 8.28437C11.458 9.0267 11.875 10.0335 11.875 11.0833V15.8333H3.95833V11.0833C3.95833 10.0335 4.37537 9.0267 5.1177 8.28437C5.86003 7.54204 6.86685 7.125 7.91667 7.125ZM2.603 9.50475C2.47701 9.9297 2.40259 10.3683 2.38133 10.811L2.375 11.0833V15.8333H7.22926e-08V12.2708C-0.000155806 11.5881 0.251772 10.9293 0.707461 10.4209C1.16315 9.91244 1.79051 9.59016 2.46921 9.51583L2.60379 9.50475H2.603ZM13.2303 9.50475C13.9348 9.54769 14.5964 9.8578 15.0801 10.3718C15.5638 10.8858 15.8332 11.565 15.8333 12.2708V15.8333H13.4583V11.0833C13.4583 10.5347 13.3792 10.0051 13.2303 9.50475ZM2.77083 4.75C3.29574 4.75 3.79915 4.95852 4.17032 5.32968C4.54148 5.70085 4.75 6.20426 4.75 6.72917C4.75 7.25407 4.54148 7.75748 4.17032 8.12865C3.79915 8.49981 3.29574 8.70833 2.77083 8.70833C2.24593 8.70833 1.74252 8.49981 1.37135 8.12865C1.00019 7.75748 0.791667 7.25407 0.791667 6.72917C0.791667 6.20426 1.00019 5.70085 1.37135 5.32968C1.74252 4.95852 2.24593 4.75 2.77083 4.75ZM13.0625 4.75C13.5874 4.75 14.0908 4.95852 14.462 5.32968C14.8331 5.70085 15.0417 6.20426 15.0417 6.72917C15.0417 7.25407 14.8331 7.75748 14.462 8.12865C14.0908 8.49981 13.5874 8.70833 13.0625 8.70833C12.5376 8.70833 12.0342 8.49981 11.663 8.12865C11.2919 7.75748 11.0833 7.25407 11.0833 6.72917C11.0833 6.20426 11.2919 5.70085 11.663 5.32968C12.0342 4.95852 12.5376 4.75 13.0625 4.75ZM7.91667 0C8.75652 0 9.56197 0.33363 10.1558 0.927495C10.7497 1.52136 11.0833 2.32681 11.0833 3.16667C11.0833 4.00652 10.7497 4.81197 10.1558 5.40584C9.56197 5.9997 8.75652 6.33333 7.91667 6.33333C7.07681 6.33333 6.27136 5.9997 5.6775 5.40584C5.08363 4.81197 4.75 4.00652 4.75 3.16667C4.75 2.32681 5.08363 1.52136 5.6775 0.927495C6.27136 0.33363 7.07681 0 7.91667 0Z" fill="#4682B4"/>
</svg>
