<svg width="27" height="27" viewBox="0 0 27 27" fill="none" xmlns="http://www.w3.org/2000/svg">
<g clip-path="url(#clip0)">
<path d="M0.186055 13.0742C0.195954 20.2528 6.02331 26.0641 13.2019 26.0542C20.3806 26.0443 26.1919 20.217 26.182 13.0384C26.1721 5.85973 20.3447 0.0484238 13.1661 0.0583234C5.98746 0.0682231 0.176155 5.89558 0.186055 13.0742Z" fill="#40B3E0"/>
<path d="M7.65315 6.74068L19.3609 9.04609C19.3609 9.04609 20.1731 9.3696 19.7847 10.263L15.685 15.6258L14.7462 17.5751L13.6467 20.8558C13.6467 20.8558 13.4689 21.3592 13.0794 21.4085C12.6898 21.4578 12.478 20.8411 12.478 20.8411L7.34635 7.81268C7.34635 7.81268 6.87412 6.74186 7.65335 6.74078" fill="white"/>
<path d="M19.2397 16.0321C19.2397 16.0321 19.2253 16.1885 18.6086 16.3843C17.992 16.5798 14.7467 17.5746 14.7467 17.5746L9.73589 9.70816C9.73589 9.70816 9.45927 9.25394 9.73528 9.26981C9.73528 9.26981 9.78391 9.18861 10.0115 9.4319C10.2392 9.67498 15.5882 15.6091 15.5882 15.6091" fill="#D2E5F1"/>
<path d="M17.2573 13.5693L19.1919 15.6853C19.1919 15.6853 19.3178 15.8508 19.2393 16.0321L15.6506 15.6313" fill="#B5CFE4"/>
</g>
<defs>
<clipPath id="clip0">
<rect width="25.996" height="25.996" fill="white" transform="translate(0.203979 26.0722) rotate(-90.079)"/>
</clipPath>
</defs>
</svg>
