<svg width="28" height="22" viewBox="0 0 28 22" fill="none" xmlns="http://www.w3.org/2000/svg">
<path d="M27.684 2.67895C26.6905 3.11863 25.623 3.41579 24.5025 3.54947C25.6463 2.86526 26.5245 1.78179 26.938 0.490841C25.8507 1.13483 24.6611 1.58855 23.4206 1.83242C22.4101 0.757999 20.9705 0.086525 19.3772 0.086525C16.318 0.086525 13.8377 2.56189 13.8377 5.61495C13.8377 6.04831 13.8867 6.47021 13.9811 6.87495C9.37739 6.64431 5.29575 4.44337 2.56358 1.09853C2.08686 1.91505 1.8137 2.86484 1.8137 3.87789C1.8137 5.796 2.79171 7.4881 4.27797 8.47958C3.39831 8.45208 2.538 8.21496 1.76887 7.788C1.76856 7.81116 1.76856 7.83431 1.76856 7.85758C1.76856 10.5362 3.67796 12.7707 6.21195 13.2786C5.39625 13.5 4.54062 13.5324 3.71045 13.3734C4.41529 15.5698 6.46107 17.1681 8.88496 17.2128C6.98915 18.6956 4.6006 19.5795 2.00544 19.5795C1.55825 19.5795 1.11739 19.5533 0.684021 19.5022C3.13543 21.0708 6.04711 21.9861 9.17531 21.9861C19.3643 21.9861 24.9359 13.5618 24.9359 6.2561C24.9359 6.01631 24.9307 5.77789 24.9199 5.54084C26.0044 4.7584 26.9404 3.78928 27.684 2.67895Z" fill="#55ACEE"/>
</svg>
