<svg width="29" height="29" viewBox="0 0 29 29" fill="none" xmlns="http://www.w3.org/2000/svg">
<path d="M24.2914 20.606L24.5197 20.1479C25.6615 18.2388 26.1927 16.1017 26.1897 13.9653C26.1805 7.25102 20.6794 1.76508 13.9651 1.77434C10.7606 1.77876 7.63408 3.08021 5.34824 5.37226C3.0624 7.66441 1.76958 10.7182 1.7741 13.999C1.78336 20.7133 7.28445 26.1993 14.075 26.1136C16.3639 26.1105 18.5757 25.4207 20.4815 24.2737L20.9389 23.9679L25.4423 25.1823L24.2914 20.606Z" fill="#00E676"/>
<path d="M4.12573 4.07684C1.4589 6.6747 0.0141191 10.2627 0.0191696 13.9251C0.0299019 21.7075 6.37132 27.9553 14.0774 27.8685C16.519 27.8651 18.8834 27.1751 21.0181 26.0276L28.2692 28.0015L26.3515 20.6031C27.4933 18.5415 28.0242 16.2518 28.0211 13.9627C28.0104 6.25656 21.6689 0.0087472 13.9628 0.0193742C10.2241 0.0245301 6.71632 1.47909 4.12573 4.07673L4.12573 4.07684ZM25.6557 13.8898C25.6586 15.9498 25.1274 18.0106 24.0616 19.767L23.8333 20.2251L24.9839 24.6488L20.6333 23.5103L20.1759 23.8161C14.7633 27.1808 7.58885 25.5884 4.22407 20.0995C0.859391 14.6106 2.45192 7.5126 7.9408 4.14782C13.4297 0.783147 20.5277 2.37567 23.8925 7.86445C25.0394 9.61787 25.6527 11.7533 25.6556 13.8898L25.6557 13.8898ZM17.1774 7.18713L16.797 8.02693C16.797 8.02693 16.2646 9.24835 15.8841 10.0119C15.8842 10.0883 15.808 10.1646 15.8081 10.2409C15.8084 10.4699 15.885 10.6224 15.9615 10.7748C15.9615 10.7748 16.0379 10.851 17.2601 11.9175C17.4128 11.9936 17.4894 12.1461 17.4896 12.2987L17.4897 12.375C17.4898 12.4513 17.4137 12.604 17.3375 12.6804L17.1855 13.0622C16.8051 13.902 16.3483 14.6655 15.7388 15.2768C15.5864 15.4296 15.4341 15.6587 15.2818 15.8115C14.7484 16.3464 14.1387 16.8813 13.4525 17.2637L13.3 17.3402C13.2238 17.4166 13.1476 17.4167 12.9951 17.4932C12.8425 17.4935 12.6899 17.4937 12.6135 17.4174C12.6135 17.4174 12.2315 17.1128 12.0024 16.8843C11.8495 16.7318 11.6205 16.6559 11.4677 16.5035C11.2386 16.3512 10.9333 16.2753 10.7045 16.352C10.3231 16.4287 8.26428 17.3472 7.80684 17.5766C7.57812 17.7297 7.50209 17.8822 7.42606 18.1113L7.42722 18.9505C7.42743 19.1032 7.50399 19.2556 7.5042 19.4083L7.58054 19.4845C7.6571 19.637 7.80989 19.7894 7.88634 19.9419C8.03925 20.0943 8.19183 20.1704 8.34473 20.3228C9.03216 20.8559 9.87186 21.1599 10.7111 21.1588C11.3215 21.1579 11.9317 21.0045 12.4655 20.7748L12.6943 20.6982C14.143 20.0095 15.4389 19.0922 16.5816 17.8697L16.8864 17.5641C17.115 17.335 17.2673 17.1058 17.4959 16.9529C18.8672 15.3487 19.8565 13.5162 20.3878 11.4554C20.4637 11.2264 20.4633 10.9212 20.5393 10.6922L20.5382 9.92925C20.5377 9.54773 20.3845 9.09019 20.2315 8.78512C20.0786 8.55651 20.0784 8.40392 19.9256 8.25154L19.7727 8.09906C19.6199 7.94668 19.5434 7.7942 19.3906 7.64183C19.2378 7.48946 19.085 7.33708 18.9323 7.26094C18.6269 7.10878 18.2452 7.03307 17.8637 6.95725L17.3296 6.95798C17.3296 6.95798 17.2534 7.03444 17.1774 7.18713Z" fill="white"/>
</svg>
